<svg width="19" height="18" viewBox="0 0 19 18" fill="none" xmlns="http://www.w3.org/2000/svg">
<g clip-path="url(#clip0_25_527)">
<path d="M13.89 9.4501C13.8953 8.84392 14.0568 8.24936 14.359 7.72385C14.6611 7.19833 15.0937 6.75962 15.615 6.4501C15.289 5.99596 14.8617 5.62398 14.367 5.36362C13.8724 5.10326 13.3238 4.96168 12.765 4.9501C11.565 4.8751 10.365 5.7001 9.76495 5.7001C9.16495 5.7001 8.26495 4.9501 7.21495 4.9501C6.56599 4.97455 5.93451 5.16712 5.38233 5.50894C4.83016 5.85077 4.37621 6.33013 4.06495 6.9001C2.63995 9.3001 3.68995 12.7501 5.03995 14.7001C5.63995 15.6751 6.46495 16.6501 7.43995 16.6501C8.41495 16.6501 8.78995 16.0501 9.98995 16.0501C11.19 16.0501 11.49 16.6501 12.54 16.6501C13.59 16.6501 14.265 15.6751 14.94 14.7001C15.39 14.1001 15.69 13.3501 15.99 12.5251C15.3769 12.275 14.8509 11.8502 14.4775 11.3034C14.1041 10.7566 13.8998 10.1121 13.89 9.4501ZM9.68995 4.0501C10.406 4.0501 11.0928 3.76563 11.5991 3.25929C12.1055 2.75294 12.39 2.06618 12.39 1.3501C11.6739 1.3501 10.9871 1.63456 10.4808 2.14091C9.97442 2.64726 9.68995 3.33401 9.68995 4.0501Z" fill="#212833"/>
</g>
<defs>
<clipPath id="clip0_25_527">
<rect width="18" height="18" fill="white" transform="translate(0.689941)"/>
</clipPath>
</defs>
</svg>
