<svg width="60" height="60" viewBox="0 0 60 60" fill="none" xmlns="http://www.w3.org/2000/svg">
<rect y="-0.000183105" width="60" height="60" rx="30" fill="white"/>
<path d="M18 24.6665L21.6292 27.6908C21.8688 27.8905 22.1708 27.9998 22.4827 27.9998H37.5172C37.8292 27.9998 38.1312 27.8905 38.3708 27.6908L42 24.6665M22.6667 32.6665H22.68M37.3333 32.6665H37.3467M24.8809 19.9998H35.1192C36.0761 19.9998 36.9597 20.5126 37.4344 21.3434L41.2973 28.1034C41.7577 28.9093 42 29.8213 42 30.7496V38.6665C42 39.4029 41.4031 39.9998 40.6667 39.9998H39.3333C38.5969 39.9998 38 39.4029 38 38.6665V37.3332H22V38.6665C22 39.4029 21.403 39.9998 20.6667 39.9998H19.3333C18.597 39.9998 18 39.4029 18 38.6665V30.7496C18 29.8213 18.2422 28.9093 18.7027 28.1034L22.5655 21.3434C23.0403 20.5126 23.9239 19.9998 24.8809 19.9998ZM23.3333 32.6665C23.3333 33.0346 23.0349 33.3332 22.6667 33.3332C22.2985 33.3332 22 33.0346 22 32.6665C22 32.2984 22.2985 31.9998 22.6667 31.9998C23.0349 31.9998 23.3333 32.2984 23.3333 32.6665ZM38 32.6665C38 33.0346 37.7015 33.3332 37.3333 33.3332C36.9652 33.3332 36.6667 33.0346 36.6667 32.6665C36.6667 32.2984 36.9652 31.9998 37.3333 31.9998C37.7015 31.9998 38 32.2984 38 32.6665Z" stroke="black" stroke-width="1.5" stroke-linecap="round" stroke-linejoin="round"/>
</svg>
