<svg width="41" height="41" viewBox="0 0 41 41" fill="none" xmlns="http://www.w3.org/2000/svg">
<g clip-path="url(#clip0_26_1016)">
<path d="M39.9159 24.1895L30.8653 15.1383L30.8728 15.1452C31.1259 14.2077 31.2734 13.2252 31.2734 12.207C31.2734 5.99453 26.2366 0.957031 20.0234 0.957031C18.9841 0.957031 17.9822 1.10953 17.0278 1.37328C16.6216 1.10453 16.1428 0.957031 15.6484 0.957031H3.14844C1.76781 0.957031 0.648438 2.07641 0.648438 3.45703V15.957C0.648438 16.6202 0.912188 17.2558 1.38094 17.7245L23.8809 40.2245C24.3684 40.7127 25.0091 40.957 25.6484 40.957C26.2878 40.957 26.9284 40.7127 27.4159 40.2245L39.9159 27.7245C40.8928 26.7489 40.8928 25.1652 39.9159 24.1895ZM20.0234 2.20766C25.5466 2.20766 30.0234 6.68453 30.0234 12.2077C30.0234 12.8345 29.9503 13.5127 29.8391 14.1127L28.7328 13.0064L28.7178 12.9908C28.7416 12.7414 28.7734 12.4464 28.7734 12.2077C28.7734 7.37578 24.8559 3.45766 20.0234 3.45766C19.7534 3.45766 19.4884 3.47391 19.2247 3.49766C18.7122 3.54391 18.2147 3.64016 17.7303 3.77141C15.5272 4.36828 13.6741 5.80203 12.5259 7.71391C12.3103 8.07203 12.1134 8.44203 11.9503 8.83141C11.5153 9.87078 11.2734 11.0108 11.2734 12.2077C11.2734 12.5933 11.3553 13.3433 11.3553 13.3433C11.3553 13.3433 10.8959 13.457 10.6484 13.457C10.4591 13.457 10.2766 13.432 10.0997 13.392C10.0759 13.387 10.0791 13.387 10.0997 13.392C10.0541 13.0027 10.0234 12.6095 10.0234 12.2077C10.0234 10.8839 10.2866 9.62391 10.7534 8.46828C10.9209 8.05453 11.1141 7.65641 11.3328 7.27266C12.5197 5.18703 14.4347 3.57578 16.7328 2.77391C17.1828 2.61641 17.6441 2.48578 18.1209 2.39453C18.7366 2.27453 19.3722 2.20766 20.0234 2.20766ZM27.5016 11.7752L20.4559 4.72953C24.2516 4.94641 27.2841 7.97891 27.5016 11.7752ZM13.1484 10.957C13.1484 11.5764 12.9166 12.1352 12.5416 12.5689C12.5366 12.4489 12.5234 12.3302 12.5234 12.2077C12.5234 11.3945 12.6566 10.6139 12.8959 9.88016C13.0534 10.2077 13.1484 10.5702 13.1484 10.957ZM8.77344 12.207C8.77344 12.3389 8.78719 12.4683 8.79281 12.5989C8.39969 12.1595 8.14844 11.5933 8.14844 10.957C8.14844 10.0839 8.59844 9.31641 9.27719 8.86953C8.94969 9.92453 8.77344 11.0452 8.77344 12.207ZM39.0322 26.8408L26.5316 39.3408C26.2959 39.577 25.9822 39.707 25.6484 39.707C25.3147 39.707 25.0009 39.577 24.7647 39.3408L2.26469 16.8408C2.03219 16.6077 1.89844 16.2852 1.89844 15.957V3.45703C1.89844 2.76703 2.45906 2.20703 3.14844 2.20703H14.8847C12.7309 3.31641 10.9878 5.09891 9.92219 7.27891C8.19906 7.61703 6.89844 9.13453 6.89844 10.957C6.89844 13.0277 8.57781 14.707 10.6484 14.707C12.7191 14.707 14.3984 13.0277 14.3984 10.957C14.3984 10.027 14.0578 9.17703 13.4966 8.52203C14.5891 6.59203 16.5103 5.19953 18.7784 4.81953L39.0322 25.0733C39.2684 25.3095 39.3984 25.6233 39.3984 25.957C39.3984 26.2908 39.2684 26.6045 39.0322 26.8408Z" fill="#2B59FF"/>
<path d="M31.9746 24.6322C31.2434 23.901 30.054 23.9004 29.3228 24.6316L24.3327 29.6216C23.6021 30.3522 23.5752 31.5691 24.3065 32.3004C25.0365 33.0316 26.249 33.0091 26.9802 32.2779L31.9753 27.2841H31.974C32.7052 26.5529 32.7052 25.3629 31.9746 24.6322ZM31.0902 26.4004L26.1152 31.3754C25.8709 31.6197 25.4327 31.661 25.1902 31.4166C24.9459 31.1722 24.9777 30.7454 25.2221 30.501L30.2071 25.516C30.4515 25.2716 30.8465 25.2716 31.0909 25.516C31.3346 25.7597 31.3346 26.156 31.0902 26.4004Z" fill="#2B59FF"/>
<path d="M26.9747 22.2846C27.706 21.5534 27.706 20.3634 26.9754 19.6327C26.2441 18.9015 25.0547 18.9009 24.3235 19.6321L19.3335 24.6221C18.6029 25.3527 18.576 26.5696 19.3072 27.3009C20.0372 28.0321 21.2497 28.0096 21.981 27.2784L26.976 22.2846H26.9747ZM26.091 21.4009L21.116 26.3759C20.8716 26.6202 20.4335 26.6615 20.191 26.4171C19.9466 26.1727 19.9785 25.7459 20.2229 25.5015L25.2079 20.5165C25.4522 20.2721 25.8472 20.2721 26.0916 20.5165C26.3354 20.7602 26.3354 21.1565 26.091 21.4009Z" fill="#2B59FF"/>
<path d="M21.9723 17.2822C22.7035 16.5509 22.7035 15.3609 21.9729 14.6303C21.2417 13.899 20.0523 13.8984 19.321 14.6297L14.331 19.6197C13.6004 20.3503 13.5735 21.5672 14.3048 22.2984C15.0348 23.0297 16.2473 23.0072 16.9785 22.2759L21.9735 17.2822H21.9723ZM21.0885 16.3984L16.1135 21.3734C15.8692 21.6178 15.431 21.659 15.1885 21.4147C14.9442 21.1703 14.976 20.7434 15.2204 20.499L20.2054 15.514C20.4498 15.2697 20.8448 15.2697 21.0892 15.514C21.3329 15.7578 21.3329 16.154 21.0885 16.3984Z" fill="#2B59FF"/>
</g>
<defs>
<clipPath id="clip0_26_1016">
<rect width="40" height="40" fill="white" transform="translate(0.648438 0.957031)"/>
</clipPath>
</defs>
</svg>
