<svg width="199" height="165" viewBox="0 0 199 165" fill="none" xmlns="http://www.w3.org/2000/svg">
<path d="M11.0972 61.5671C1.24126 49.3854 2.22737 22.4355 2.22737 22.4355V0H197.886V159.135C197.886 159.135 166.509 169.631 151.971 159.135C139.925 150.439 135.797 124.699 135.797 124.699C135.797 124.699 94.1202 138.207 74.2296 124.699C57.3419 113.231 50.2288 78.2633 50.2288 78.2633C50.2288 78.2633 21.5477 74.4836 11.0972 61.5671Z" fill="#EFF2FF"/>
<path d="M2.23556 22.9569C2.23556 22.9569 1.61498 48.6038 11.6366 60.5376C21.9214 72.7846 48.5514 77.7729 48.5514 77.7729" stroke="black" stroke-width="2.7" stroke-linecap="round"/>
<path d="M45.4692 62.3318C45.4692 62.3318 53.1636 110.578 76.3515 124.868C101.826 140.568 152.785 119.464 152.785 119.464" stroke="black" stroke-width="2.7" stroke-linecap="round"/>
<path d="M135.8 125.64C135.8 125.64 139.102 147.849 148.925 156.523C163.18 169.109 197.564 158.839 197.564 158.839" stroke="black" stroke-width="2.7" stroke-linecap="round"/>
</svg>
