<svg width="41" height="41" viewBox="0 0 41 41" fill="none" xmlns="http://www.w3.org/2000/svg">
<path fill-rule="evenodd" clip-rule="evenodd" d="M15.7018 23.2049C15.7019 23.205 15.702 23.205 15.5274 24.2032L15.7018 23.2049L15.7191 23.2083L15.736 23.2121L22.1794 24.696L22.2211 24.7056L22.261 24.7187L22.2625 24.7193L22.2722 24.7223L22.3172 24.7364C22.3582 24.7491 22.4204 24.7678 22.5006 24.7906C22.6615 24.8364 22.8925 24.898 23.1681 24.9597C23.7275 25.085 24.4331 25.2022 25.0918 25.2022C25.6895 25.2022 26.3167 25.4295 26.6556 26.0665C26.9489 26.6176 26.8799 27.2229 26.7711 27.6383C26.6398 28.1392 26.3731 28.6637 26.0339 29.1137C26.525 28.9231 27.0619 28.6972 27.6383 28.4545L27.6997 28.4287C29.2756 27.7649 31.142 26.9787 32.7892 26.6991C34.6633 26.3808 36.0349 27.0758 36.6611 28.3307C37.2208 29.4521 37.0895 30.9241 36.2502 31.8076C36.0406 32.0283 35.7217 32.2594 35.4018 32.4723C35.0601 32.6998 34.6392 32.957 34.1714 33.2293C33.2345 33.7748 32.0747 34.4019 30.9101 35.0081C28.6039 36.2089 26.1871 37.3761 25.4198 37.6646C24.1077 38.1579 22.5815 37.9999 21.1793 37.8546C21.1364 37.8501 21.0937 37.8458 21.051 37.8413C20.6323 37.7981 20.2133 37.7549 19.7847 37.7215C17.9144 37.5761 16.4812 37.1085 15.1565 36.6762L15.133 36.6685C13.708 36.2035 12.4056 35.7821 10.6567 35.7099C10.4177 35.7 9.92992 35.7075 9.35674 35.7236C9.03149 37.0331 7.89375 38 6.54008 38H4.91008C3.30289 38 2 36.637 2 34.9557V26.0451C2 24.3637 3.30289 23.0007 4.91007 23.0007H6.54008C7.58499 23.0007 8.5005 23.5764 9.01374 24.4411C10.2471 23.9833 11.5845 23.4762 12.0104 23.2769C12.3988 23.0951 12.8477 23.0334 13.2215 23.0112C13.6146 22.9878 14.0227 23.004 14.3802 23.0324C14.7407 23.061 15.0679 23.1037 15.3043 23.1391C15.4231 23.1567 15.5201 23.1727 15.5885 23.1846C15.6228 23.1905 15.65 23.1954 15.6692 23.1989L15.6919 23.2031L15.6985 23.2043L15.7007 23.2047L15.7018 23.2049ZM17.7424 29.7145L17.5716 30.7134L17.7539 28.6998L22.9557 28.7644L22.9675 28.7645C22.9719 28.7643 22.9792 28.7638 22.9895 28.7629C23.0254 28.7596 23.0971 28.7501 23.1985 28.7231C23.3991 28.6698 23.727 28.5447 24.1324 28.2476C24.2723 28.145 24.442 27.9665 24.5963 27.7365C24.7155 27.5585 24.8046 27.3807 24.8601 27.2282C24.0871 27.2049 23.3288 27.0713 22.7619 26.9442C22.4459 26.8735 22.1799 26.8027 21.9915 26.749C21.8971 26.7222 21.8217 26.6995 21.7688 26.6831C21.7516 26.6779 21.7367 26.6732 21.7243 26.6693L15.3383 25.1987L15.3357 25.1982C15.322 25.1957 15.3006 25.1919 15.2725 25.1871C15.2164 25.1773 15.1333 25.1636 15.0302 25.1482C14.8229 25.1172 14.5398 25.0804 14.2333 25.0561C13.9239 25.0315 13.6082 25.021 13.3313 25.0375C13.0351 25.055 12.8672 25.0993 12.8025 25.1295C12.1772 25.4222 10.1241 26.1858 8.77725 26.6806L7.68083 27.0835L7.49798 25.8829C7.42436 25.3998 7.02257 25.0303 6.54008 25.0303H4.91007C4.37434 25.0303 3.94004 25.4846 3.94004 26.0451V34.9557C3.94004 35.5161 4.37434 35.9705 4.91008 35.9705H6.54008C7.07583 35.9705 7.51011 35.5161 7.51011 34.9557V34.7368V33.7563L8.44676 33.7226C9.32395 33.691 10.2941 33.6638 10.7333 33.6819C12.7509 33.7654 14.2643 34.2591 15.6849 34.7227L15.7107 34.7311C17.0413 35.1652 18.2912 35.5703 19.9285 35.6977C20.3824 35.7329 20.8224 35.7784 21.2365 35.8211L21.2415 35.8216C22.8174 35.9842 23.9084 36.0762 24.7637 35.7546C25.406 35.5132 27.7209 34.4016 30.0458 33.1912C31.1969 32.5919 32.3274 31.9803 33.2279 31.4559C33.6788 31.1934 34.0633 30.9578 34.3602 30.7601C34.6791 30.5479 34.832 30.4214 34.8741 30.377C35.0417 30.2007 35.162 29.712 34.9415 29.27C34.7875 28.9616 34.3469 28.4907 33.1 28.7024C31.6887 28.942 30.0121 29.6426 28.3628 30.3372L28.3423 30.3458C27.5267 30.6893 26.7157 31.0308 25.9981 31.2784C25.3042 31.5178 24.5612 31.7207 23.9271 31.6814C23.0144 31.6249 21.4049 31.3773 20.0684 31.1537C19.3904 31.0404 18.7667 30.9304 18.3128 30.8488C18.0857 30.808 17.9008 30.7742 17.7725 30.7506L17.6242 30.7233L17.5852 30.716L17.5752 30.7141L17.5725 30.7136L17.7424 29.7145ZM24.9245 26.9508C24.9246 26.9508 24.9247 26.9517 24.9247 26.9534L24.9245 26.9508Z" fill="#2B59FF"/>
<path fill-rule="evenodd" clip-rule="evenodd" d="M20.288 11.0333L19.5 11.674L18.7216 11.0207L19.5124 10L20.288 11.0333ZM19.4905 13.4239C19.36 13.6161 19.2225 13.8245 19.0854 14.0413C18.7852 14.5163 18.4992 15.013 18.2919 15.4618C18.0678 15.947 18 16.2419 18 16.3574C18 17.2396 18.6523 17.9185 19.5 17.9185C20.3477 17.9185 21 17.2396 21 16.3574C21 16.2761 20.9391 16.0009 20.7098 15.5092C20.5009 15.0614 20.213 14.5586 19.9113 14.0751C19.7687 13.8465 19.6257 13.6265 19.4905 13.4239ZM19.5 11.674C18.7216 11.0207 18.7217 11.0205 18.7216 11.0207L18.7187 11.0244L18.7122 11.0327L18.689 11.0631C18.6691 11.0892 18.6405 11.1268 18.6046 11.1747C18.5327 11.2705 18.431 11.4076 18.3094 11.5764C18.0669 11.9129 17.7416 12.3798 17.4146 12.8973C17.0898 13.411 16.7508 13.994 16.4894 14.56C16.2447 15.0895 16 15.7443 16 16.3574C16 18.3892 17.5477 20 19.5 20C21.4523 20 23 18.3892 23 16.3574C23 15.7621 22.7484 15.1137 22.509 14.6002C22.2491 14.0431 21.912 13.4597 21.5887 12.9415C21.2631 12.4195 20.9392 11.9444 20.6977 11.6009C20.5765 11.4286 20.4753 11.2884 20.4039 11.1904C20.3681 11.1414 20.3398 11.1029 20.3201 11.0764L20.2971 11.0454L20.2908 11.0369L20.288 11.0333C20.2879 11.0332 20.288 11.0333 19.5 11.674Z" fill="#2B59FF"/>
<path fill-rule="evenodd" clip-rule="evenodd" d="M30.3 4.08937L29.5 4.70213L28.7 4.08937L29.5 3L30.3 4.08937ZM29.5 6.4549C29.1012 7.04033 28.5998 7.80077 28.0996 8.62372C27.5478 9.53173 27.0088 10.4974 26.6111 11.3775C26.1959 12.2962 26 12.9836 26 13.383C26 15.3721 27.5523 16.9574 29.5 16.9574C31.4477 16.9574 33 15.3721 33 13.383C33 12.9836 32.8041 12.2962 32.3889 11.3775C31.9912 10.4974 31.4522 9.53173 30.9004 8.62372C30.4002 7.80077 29.8988 7.04033 29.5 6.4549ZM29.5 4.70213C28.7 4.08937 28.7001 4.08923 28.7 4.08937L28.6958 4.09511L28.6852 4.10965L28.6455 4.16422C28.6112 4.21162 28.5614 4.28073 28.4983 4.36917C28.3722 4.54597 28.1929 4.80029 27.9781 5.11309C27.5492 5.73772 26.9756 6.60002 26.4004 7.54658C25.8272 8.48962 25.2412 9.53449 24.7952 10.5215C24.3666 11.4697 24 12.5059 24 13.383C24 16.5002 26.4477 19 29.5 19C32.5523 19 35 16.5002 35 13.383C35 12.5059 34.6334 11.4697 34.2048 10.5215C33.7588 9.53449 33.1728 8.48962 32.5996 7.54658C32.0244 6.60002 31.4508 5.73772 31.0219 5.11309C30.8071 4.80029 30.6278 4.54597 30.5017 4.36917C30.4386 4.28073 30.3888 4.21162 30.3545 4.16422L30.3148 4.10965L30.3042 4.09511L30.3 4.08937C30.2999 4.08923 30.3 4.08937 29.5 4.70213Z" fill="#2B59FF"/>
</svg>
