<svg width="41" height="41" viewBox="0 0 41 41" fill="none" xmlns="http://www.w3.org/2000/svg">
<path d="M8.46362 14.2905C8.46362 9.57648 8.46362 7.21946 9.92809 5.75499C11.3926 4.29053 13.7496 4.29053 18.4636 4.29053H21.797C26.511 4.29053 28.868 4.29053 30.3325 5.75499C31.797 7.21946 31.797 9.57648 31.797 14.2905V27.6239C31.797 32.3379 31.797 34.6949 30.3325 36.1594C28.868 37.6239 26.511 37.6239 21.797 37.6239H18.4636C13.7496 37.6239 11.3926 37.6239 9.92809 36.1594C8.46362 34.6949 8.46362 32.3379 8.46362 27.6239V14.2905Z" stroke="#2B59FF" stroke-width="1.8"/>
<path d="M8.46362 7.75049C6.83847 7.91034 5.74457 8.27162 4.92809 9.08809C3.46362 10.5526 3.46362 12.9096 3.46362 17.6237V24.2904C3.46362 29.0044 3.46362 31.3614 4.92809 32.8259C5.74457 33.6424 6.83847 34.0035 8.46362 34.1634" stroke="#2B59FF" stroke-width="1.8"/>
<path d="M31.7971 7.75049C33.4223 7.91034 34.5161 8.27162 35.3326 9.08809C36.7971 10.5526 36.7971 12.9096 36.7971 17.6237V24.2904C36.7971 29.0044 36.7971 31.3614 35.3326 32.8259C34.5161 33.6424 33.4223 34.0035 31.7971 34.1634" stroke="#2B59FF" stroke-width="1.8"/>
<path d="M15.1304 22.6235H25.1304" stroke="#2B59FF" stroke-width="1.8" stroke-linecap="round"/>
<path d="M15.1304 15.957H25.1304" stroke="#2B59FF" stroke-width="1.8" stroke-linecap="round"/>
<path d="M15.1304 29.2905H20.1304" stroke="#2B59FF" stroke-width="1.8" stroke-linecap="round"/>
</svg>
