<svg width="19" height="18" viewBox="0 0 19 18" fill="none" xmlns="http://www.w3.org/2000/svg">
<path d="M3.2926 2.69981C3.29081 2.72478 3.29081 2.74984 3.2926 2.77481V15.2098C3.29081 15.2348 3.29081 15.2598 3.2926 15.2848C3.30905 15.2196 3.34272 15.16 3.3901 15.1123L8.9776 8.99981L3.3901 2.87231C3.34154 2.82251 3.30778 2.76019 3.2926 2.69231V2.69981ZM3.7576 15.7348C3.87038 15.7452 3.9835 15.7189 4.0801 15.6598L11.2801 11.5123L11.2651 11.4973L9.4876 9.54731L3.9376 15.6223C3.88969 15.6764 3.82718 15.7154 3.7576 15.7348ZM11.9101 11.1598L15.0451 9.35231C15.1091 9.3165 15.1624 9.26426 15.1995 9.20098C15.2367 9.1377 15.2562 9.06567 15.2562 8.99231C15.2562 8.91895 15.2367 8.84692 15.1995 8.78364C15.1624 8.72036 15.1091 8.66812 15.0451 8.63231L11.9101 6.83231C11.8946 6.89406 11.8636 6.95084 11.8201 6.99731L9.9976 8.99231L11.8201 10.9873C11.8651 11.0398 11.8951 11.0998 11.9101 11.1598ZM11.2876 6.47231L4.0801 2.30981C3.98177 2.25588 3.86875 2.23485 3.7576 2.24981C3.8326 2.27231 3.8926 2.30981 3.9451 2.36231L9.4876 8.43731L11.2651 6.48731L11.2876 6.46481V6.47231Z" fill="#212833"/>
</svg>
