<svg width="18" height="18" viewBox="0 0 18 18" fill="none" xmlns="http://www.w3.org/2000/svg">
<path d="M9 1.5C11.04 1.5 11.295 1.5075 12.09 1.545C12.8925 1.5825 13.44 1.71 13.9125 1.89C14.4075 2.085 14.8275 2.34 15.24 2.76C15.6225 3.135 15.915 3.585 16.11 4.0875C16.29 4.5675 16.4175 5.1075 16.455 5.91C16.4925 6.705 16.5 6.96 16.5 9C16.5 11.04 16.4925 11.295 16.455 12.09C16.443 12.7126 16.3264 13.3287 16.11 13.9125C15.9206 14.4133 15.6236 14.8665 15.24 15.24C14.865 15.6225 14.415 15.915 13.9125 16.1025C13.4325 16.29 12.8925 16.4175 12.09 16.455C11.295 16.4925 11.04 16.5 9 16.5C6.96 16.5 6.705 16.4925 5.91 16.455C5.28702 16.4406 4.6709 16.3215 4.0875 16.1025C3.58749 15.9151 3.13443 15.6207 2.76 15.24C2.3775 14.865 2.085 14.415 1.89 13.9125C1.67302 13.3288 1.55638 12.7126 1.545 12.09C1.5075 11.295 1.5 11.04 1.5 9C1.5 6.96 1.5075 6.705 1.545 5.91C1.5825 5.1075 1.71 4.56 1.89 4.0875C2.085 3.585 2.3775 3.135 2.76 2.76C3.135 2.3775 3.585 2.085 4.0875 1.89C4.67119 1.67302 5.28739 1.55638 5.91 1.545C6.705 1.5075 6.96 1.5 9 1.5ZM9 5.25C8.00544 5.25 7.05161 5.64509 6.34835 6.34835C5.64509 7.05161 5.25 8.00544 5.25 9C5.25 9.99456 5.64509 10.9484 6.34835 11.6517C7.05161 12.3549 8.00544 12.75 9 12.75C9.99456 12.75 10.9484 12.3549 11.6517 11.6517C12.3549 10.9484 12.75 9.99456 12.75 9C12.75 8.00544 12.3549 7.05161 11.6517 6.34835C10.9484 5.64509 9.99456 5.25 9 5.25ZM13.875 5.0625C13.875 4.81386 13.7762 4.5754 13.6004 4.39959C13.4246 4.22377 13.1861 4.125 12.9375 4.125C12.6889 4.125 12.4504 4.22377 12.2746 4.39959C12.0988 4.5754 12 4.81386 12 5.0625C12 5.31114 12.0988 5.5496 12.2746 5.72541C12.4504 5.90123 12.6889 6 12.9375 6C13.1861 6 13.4246 5.90123 13.6004 5.72541C13.7762 5.5496 13.875 5.31114 13.875 5.0625ZM9 6.75C9.59674 6.75 10.169 6.98705 10.591 7.40901C11.0129 7.83097 11.25 8.40326 11.25 9C11.25 9.59674 11.0129 10.169 10.591 10.591C10.169 11.0129 9.59674 11.25 9 11.25C8.40326 11.25 7.83097 11.0129 7.40901 10.591C6.98705 10.169 6.75 9.59674 6.75 9C6.75 8.40326 6.98705 7.83097 7.40901 7.40901C7.83097 6.98705 8.40326 6.75 9 6.75Z" fill="#FFFDFA"/>
</svg>
