<svg width="18" height="18" viewBox="0 0 18 18" fill="none" xmlns="http://www.w3.org/2000/svg">
<g clip-path="url(#clip0_25_544)">
<path d="M1.5451 6.45H4.8226V16.3125H1.5451V6.4425V6.45ZM3.2026 1.6875C2.0776 1.6875 1.3501 2.4225 1.3501 3.39C1.3501 4.335 2.0626 5.1 3.1651 5.1H3.1801C4.3276 5.1 5.0401 4.335 5.0401 3.39C5.0176 2.4225 4.3276 1.6875 3.2026 1.6875ZM12.8776 6.21C12.2826 6.18617 11.6925 6.326 11.1715 6.61429C10.6504 6.90257 10.2185 7.32825 9.9226 7.845V6.4425H6.6376C6.6826 7.3725 6.6376 16.3125 6.6376 16.3125H9.9226V10.8C9.9226 10.5 9.9376 10.215 10.0276 9.9975C10.2676 9.4125 10.8076 8.7975 11.7076 8.7975C12.9001 8.7975 13.3726 9.705 13.3726 11.0325V16.3125H16.6501V10.6575C16.6501 7.62 15.0376 6.21 12.8776 6.21Z" fill="#FFFDFA"/>
</g>
<defs>
<clipPath id="clip0_25_544">
<rect width="18" height="18" fill="white"/>
</clipPath>
</defs>
</svg>
