<svg width="60" height="60" viewBox="0 0 60 60" fill="none" xmlns="http://www.w3.org/2000/svg">
<rect y="-0.000183105" width="60" height="60" rx="30" fill="white"/>
<path d="M29.9999 33.3332V35.9998M23.3333 27.3716C23.9618 27.3332 24.7367 27.3332 25.7333 27.3332H34.2666C35.2631 27.3332 36.0381 27.3332 36.6666 27.3716M23.3333 27.3716C22.5488 27.4194 21.9923 27.5272 21.5173 27.7692C20.7646 28.1526 20.1527 28.7645 19.7692 29.5171C19.3333 30.3729 19.3333 31.4929 19.3333 33.7332V35.5998C19.3333 37.8401 19.3333 38.9601 19.7692 39.8158C20.1527 40.5685 20.7646 41.1804 21.5173 41.5638C22.3729 41.9998 23.493 41.9998 25.7333 41.9998H34.2666C36.5069 41.9998 37.6269 41.9998 38.4826 41.5638C39.2353 41.1804 39.8471 40.5685 40.2306 39.8158C40.6666 38.9601 40.6666 37.8401 40.6666 35.5998V33.7332C40.6666 31.4929 40.6666 30.3729 40.2306 29.5171C39.8471 28.7645 39.2353 28.1526 38.4826 27.7692C38.0075 27.5272 37.451 27.4194 36.6666 27.3716M23.3333 27.3716V24.6665C23.3333 20.9846 26.318 17.9998 29.9999 17.9998C33.6818 17.9998 36.6666 20.9846 36.6666 24.6665V27.3716" stroke="black" stroke-width="1.5" stroke-linecap="round" stroke-linejoin="round"/>
</svg>
