<svg width="41" height="41" viewBox="0 0 41 41" fill="none" xmlns="http://www.w3.org/2000/svg">
<path fill-rule="evenodd" clip-rule="evenodd" d="M25.3784 6.80166C26.3233 5.68513 28.0204 5.61454 29.0548 6.64876L31.6894 9.28356C32.6089 10.203 32.6701 11.6736 31.8303 12.6662L14.4875 33.1622C14.4146 33.2484 14.3249 33.3187 14.224 33.3692L10.7147 35.1239H33.8513C34.3116 35.1239 34.6846 35.497 34.6846 35.9572C34.6846 36.4174 34.3116 36.7905 33.8513 36.7905H7.18463C6.79814 36.7905 6.46239 36.5249 6.37359 36.1487C6.28479 35.7725 6.46628 35.3847 6.81196 35.2119L13.3256 31.955L30.5579 11.5896C30.8378 11.2588 30.8174 10.7685 30.5109 10.4621L27.8761 7.82726C27.5314 7.48253 26.9656 7.50606 26.6508 7.87823L9.59111 28.0397L7.97521 32.8874C7.82966 33.324 7.35773 33.56 6.92111 33.4144C6.48449 33.2689 6.24853 32.797 6.39406 32.3604L8.06073 27.3604C8.09426 27.2597 8.14666 27.1665 8.21514 27.0855L25.3784 6.80166Z" fill="#2B59FF"/>
</svg>
