<svg width="43" height="43" viewBox="0 0 43 43" fill="none" xmlns="http://www.w3.org/2000/svg">
<path d="M3.76685 20.0389C7.86714 15.7443 13.6905 15.5421 17.8348 20.0389M15.1885 8.60865C15.1885 11.0366 13.2174 13.0049 10.786 13.0049C8.35451 13.0049 6.38344 11.0366 6.38344 8.60865C6.38344 6.18067 8.35451 4.2124 10.786 4.2124C13.2174 4.2124 15.1885 6.18067 15.1885 8.60865Z" stroke="#2B59FF" stroke-width="2.1102" stroke-linecap="round"/>
<path d="M24.8689 39.3822C28.9692 35.0876 34.7925 34.8854 38.9369 39.3822M36.2905 27.9519C36.2905 30.3799 34.3194 32.3482 31.888 32.3482C29.4566 32.3482 27.4855 30.3799 27.4855 27.9519C27.4855 25.5239 29.4566 23.5557 31.888 23.5557C34.3194 23.5557 36.2905 25.5239 36.2905 27.9519Z" stroke="#2B59FF" stroke-width="2.1102" stroke-linecap="round"/>
<path d="M5.52539 25.3145C5.52539 32.1199 11.0295 37.624 17.8349 37.624L16.0764 34.107" stroke="#2B59FF" stroke-width="2.1102" stroke-linecap="round" stroke-linejoin="round"/>
<path d="M26.6274 5.9707L37.1784 5.9707M26.6274 11.2462L37.1784 11.2462M26.6274 16.5217H32.7822" stroke="#2B59FF" stroke-width="2.1102" stroke-linecap="round" stroke-linejoin="round"/>
</svg>
