<svg width="26" height="25" viewBox="0 0 26 25" fill="none" xmlns="http://www.w3.org/2000/svg">
<path d="M12.5679 1.73524C12.7608 1.4041 13.2392 1.4041 13.4321 1.73524L16.8721 7.64143C17.0841 8.00534 17.4392 8.26338 17.8508 8.35251L24.531 9.79907C24.9055 9.88017 25.0533 10.3351 24.798 10.6209L20.2439 15.7177C19.9633 16.0317 19.8276 16.4492 19.8701 16.8682L20.5586 23.6684C20.5972 24.0497 20.2102 24.3309 19.8595 24.1764L13.6049 21.4202C13.2195 21.2503 12.7805 21.2503 12.3951 21.4202L6.14049 24.1764C5.78983 24.3309 5.40281 24.0497 5.44141 23.6684L6.12993 16.8682C6.17235 16.4492 6.03669 16.0317 5.7561 15.7177L1.20201 10.6209C0.946678 10.3351 1.0945 9.88017 1.46903 9.79907L8.14919 8.35251C8.56078 8.26338 8.91594 8.00534 9.1279 7.64143L12.5679 1.73524Z" fill="#FAFAFA" stroke="#DFDEDE"/>
</svg>
