<svg width="288" height="242" viewBox="0 0 288 242" fill="none" xmlns="http://www.w3.org/2000/svg">
<g filter="url(#filter0_d_9_208)">
<rect x="54" y="51.1997" width="179.1" height="132.4" rx="7.2" fill="white" shape-rendering="crispEdges"/>
<rect x="68.3999" y="65.5997" width="34.2" height="34.2" rx="7.2" fill="#E0E6FF"/>
<path d="M83.3321 84.9104L83.6199 84.9116C87.7999 84.948 90.1649 85.7922 90.1649 88.0982C90.1649 90.3553 87.8983 91.226 83.9011 91.2989L83.3321 91.304C78.9722 91.304 76.5002 90.4752 76.5002 88.1162C76.5002 85.7541 78.9821 84.9104 83.3321 84.9104ZM83.3321 86.2604C79.7165 86.2604 77.8502 86.8948 77.8502 88.1162C77.8502 89.3298 79.7121 89.954 83.3321 89.954C86.948 89.954 88.8149 89.3194 88.8149 88.0982C88.8149 86.8852 86.9514 86.2604 83.3321 86.2604ZM90.5283 84.273C91.0508 84.3086 91.5702 84.3835 92.0695 84.4941C93.1387 84.7068 93.9337 85.1039 94.2979 85.8681C94.5668 86.434 94.5668 87.0923 94.2979 87.658C93.9358 88.4204 93.1491 88.8146 92.0738 89.0357C91.7086 89.1108 91.3517 88.8757 91.2766 88.5106C91.2015 88.1454 91.4366 87.7885 91.8018 87.7134C92.4937 87.5711 92.9543 87.3403 93.0786 87.0786C93.1733 86.8795 93.1733 86.6468 93.0789 86.4483C92.9537 86.1856 92.4908 85.9544 91.7919 85.8152C91.3442 85.7161 90.8917 85.6509 90.4367 85.6199C90.0647 85.5946 89.7837 85.2726 89.809 84.9007C89.8343 84.5287 90.1563 84.2477 90.5283 84.273ZM83.3321 74.1495C85.8954 74.1495 87.9536 76.2075 87.9536 78.7701C87.9536 81.3335 85.8955 83.3916 83.3321 83.3916C80.7689 83.3916 78.7115 81.3337 78.7115 78.7701C78.7115 76.2074 80.769 74.1495 83.3321 74.1495ZM89.118 75.1122C91.1294 75.1122 92.7603 76.7434 92.7603 78.7545C92.7603 80.7662 91.1297 82.3968 89.118 82.3968C88.7452 82.3968 88.443 82.0946 88.443 81.7218C88.443 81.349 88.7452 81.0468 89.118 81.0468C90.3841 81.0468 91.4103 80.0206 91.4103 78.7545C91.4103 77.4889 90.3837 76.4622 89.118 76.4622C88.7452 76.4622 88.443 76.16 88.443 75.7872C88.443 75.4144 88.7452 75.1122 89.118 75.1122ZM83.3321 75.4995C81.5147 75.4995 80.0615 76.9529 80.0615 78.7701C80.0615 80.5882 81.5146 82.0416 83.3321 82.0416C85.15 82.0416 86.6036 80.5879 86.6036 78.7701C86.6036 76.9531 85.1498 75.4995 83.3321 75.4995Z" fill="#2B59FF"/>
<path d="M116.48 84.8804V79.6952H117.511V84.8804H116.48ZM114.405 82.8017V81.7739H119.59V82.8017H114.405ZM123.977 86.3071C123.451 86.3071 122.98 86.2163 122.566 86.0348C122.154 85.8533 121.828 85.6014 121.588 85.2793C121.35 84.9545 121.222 84.5787 121.205 84.1517H122.409C122.424 84.3844 122.502 84.5864 122.643 84.7577C122.786 84.9264 122.973 85.0568 123.203 85.1489C123.433 85.2409 123.689 85.2869 123.97 85.2869C124.279 85.2869 124.553 85.2332 124.791 85.1258C125.031 85.0185 125.219 84.8689 125.354 84.6771C125.49 84.4828 125.558 84.2591 125.558 84.006C125.558 83.7426 125.49 83.5112 125.354 83.3118C125.221 83.1098 125.026 82.9513 124.768 82.8362C124.512 82.7212 124.202 82.6636 123.839 82.6636H123.176V81.6972H123.839C124.131 81.6972 124.387 81.6447 124.606 81.5399C124.829 81.4351 125.003 81.2893 125.128 81.1027C125.253 80.9135 125.316 80.6923 125.316 80.4392C125.316 80.1963 125.261 79.9854 125.151 79.8064C125.044 79.6248 124.89 79.4829 124.691 79.3807C124.494 79.2784 124.261 79.2273 123.993 79.2273C123.737 79.2273 123.498 79.2746 123.276 79.3692C123.056 79.4612 122.877 79.5942 122.739 79.768C122.601 79.9393 122.526 80.1452 122.516 80.3855H121.37C121.382 79.9611 121.508 79.5878 121.745 79.2656C121.986 78.9435 122.303 78.6916 122.696 78.5101C123.09 78.3285 123.527 78.2378 124.008 78.2378C124.512 78.2378 124.946 78.3362 125.312 78.5331C125.68 78.7274 125.964 78.9869 126.164 79.3116C126.366 79.6364 126.465 79.9918 126.463 80.3778C126.465 80.8176 126.343 81.1909 126.095 81.4977C125.849 81.8045 125.522 82.0104 125.113 82.1152V82.1766C125.634 82.2558 126.038 82.4629 126.325 82.7979C126.614 83.1328 126.757 83.5483 126.754 84.0443C126.757 84.4764 126.637 84.8638 126.394 85.2064C126.153 85.549 125.825 85.8187 125.408 86.0156C124.991 86.2099 124.514 86.3071 123.977 86.3071ZM128.743 86.2726C128.533 86.2726 128.353 86.1984 128.202 86.0501C128.051 85.8993 127.976 85.7177 127.976 85.5055C127.976 85.2959 128.051 85.1169 128.202 84.9686C128.353 84.8177 128.533 84.7423 128.743 84.7423C128.952 84.7423 129.133 84.8177 129.283 84.9686C129.434 85.1169 129.51 85.2959 129.51 85.5055C129.51 85.6462 129.474 85.7753 129.402 85.8929C129.333 86.0079 129.241 86.1 129.126 86.169C129.011 86.2381 128.883 86.2726 128.743 86.2726ZM133.496 86.3071C133.016 86.3071 132.584 86.215 132.2 86.031C131.819 85.8443 131.515 85.5886 131.287 85.2639C131.06 84.9392 130.938 84.5685 130.923 84.1517H132.074C132.102 84.4892 132.251 84.7666 132.522 84.9839C132.793 85.2013 133.118 85.3099 133.496 85.3099C133.798 85.3099 134.065 85.2409 134.298 85.1028C134.533 84.9622 134.717 84.7692 134.85 84.5237C134.986 84.2783 135.054 83.9983 135.054 83.6838C135.054 83.3642 134.985 83.0791 134.846 82.8285C134.708 82.578 134.518 82.3811 134.275 82.2379C134.035 82.0947 133.759 82.0219 133.447 82.0193C133.209 82.0193 132.97 82.0602 132.729 82.142C132.489 82.2239 132.295 82.3312 132.146 82.4642L131.061 82.3031L131.502 78.3452H135.821V79.3615H132.488L132.239 81.5591H132.285C132.438 81.4108 132.641 81.2868 132.894 81.1871C133.15 81.0873 133.424 81.0375 133.715 81.0375C134.193 81.0375 134.619 81.1513 134.992 81.3788C135.368 81.6064 135.663 81.917 135.878 82.3108C136.095 82.702 136.203 83.152 136.2 83.6608C136.203 84.1696 136.088 84.6234 135.855 85.0223C135.625 85.4212 135.305 85.7356 134.896 85.9658C134.49 86.1933 134.023 86.3071 133.496 86.3071ZM140.336 86.3301C139.73 86.3275 139.212 86.1677 138.782 85.8507C138.353 85.5337 138.024 85.0722 137.797 84.4662C137.569 83.8602 137.455 83.1302 137.455 82.2763C137.455 81.4248 137.569 80.6974 137.797 80.094C138.027 79.4906 138.357 79.0304 138.786 78.7133C139.218 78.3963 139.735 78.2378 140.336 78.2378C140.937 78.2378 141.452 78.3976 141.881 78.7172C142.311 79.0342 142.639 79.4945 142.867 80.0979C143.097 80.6987 143.212 81.4248 143.212 82.2763C143.212 83.1328 143.098 83.8641 142.871 84.47C142.643 85.0734 142.315 85.5349 141.885 85.8545C141.456 86.1716 140.939 86.3301 140.336 86.3301ZM140.336 85.3061C140.867 85.3061 141.283 85.0466 141.582 84.5275C141.884 84.0085 142.035 83.2581 142.035 82.2763C142.035 81.6243 141.966 81.0733 141.828 80.6233C141.692 80.1707 141.496 79.8281 141.241 79.5954C140.988 79.3602 140.686 79.2426 140.336 79.2426C139.806 79.2426 139.391 79.5034 139.089 80.025C138.788 80.5466 138.635 81.297 138.633 82.2763C138.633 82.9308 138.701 83.4844 138.836 83.9369C138.974 84.3869 139.17 84.7283 139.423 84.9609C139.676 85.191 139.98 85.3061 140.336 85.3061ZM148.672 84.727V84.3128C148.672 84.0162 148.734 83.7452 148.857 83.4997C148.982 83.2517 149.163 83.0535 149.401 82.9052C149.642 82.7544 149.932 82.679 150.272 82.679C150.62 82.679 150.911 82.7531 151.146 82.9014C151.381 83.0497 151.559 83.2479 151.679 83.4959C151.802 83.7439 151.863 84.0162 151.863 84.3128V84.727C151.863 85.0236 151.802 85.2959 151.679 85.5439C151.557 85.7893 151.376 85.9875 151.139 86.1383C150.903 86.2866 150.614 86.3608 150.272 86.3608C149.927 86.3608 149.635 86.2866 149.397 86.1383C149.16 85.9875 148.979 85.7893 148.857 85.5439C148.734 85.2959 148.672 85.0236 148.672 84.727ZM149.566 84.3128V84.727C149.566 84.9469 149.619 85.1463 149.723 85.3253C149.828 85.5043 150.011 85.5937 150.272 85.5937C150.53 85.5937 150.71 85.5043 150.813 85.3253C150.915 85.1463 150.966 84.9469 150.966 84.727V84.3128C150.966 84.0929 150.916 83.8935 150.816 83.7145C150.719 83.5355 150.538 83.446 150.272 83.446C150.016 83.446 149.835 83.5355 149.727 83.7145C149.62 83.8935 149.566 84.0929 149.566 84.3128ZM144.722 80.2321V79.8179C144.722 79.5213 144.784 79.249 144.906 79.001C145.032 78.753 145.213 78.5548 145.451 78.4065C145.691 78.2582 145.981 78.1841 146.321 78.1841C146.669 78.1841 146.961 78.2582 147.196 78.4065C147.431 78.5548 147.609 78.753 147.729 79.001C147.849 79.249 147.909 79.5213 147.909 79.8179V80.2321C147.909 80.5287 147.848 80.801 147.725 81.049C147.605 81.2945 147.426 81.4926 147.188 81.6435C146.953 81.7918 146.664 81.8659 146.321 81.8659C145.974 81.8659 145.681 81.7918 145.443 81.6435C145.208 81.4926 145.029 81.2945 144.906 81.049C144.784 80.801 144.722 80.5287 144.722 80.2321ZM145.62 79.8179V80.2321C145.62 80.452 145.671 80.6514 145.773 80.8304C145.878 81.0094 146.061 81.0989 146.321 81.0989C146.577 81.0989 146.756 81.0094 146.858 80.8304C146.963 80.6514 147.016 80.452 147.016 80.2321V79.8179C147.016 79.598 146.966 79.3986 146.866 79.2196C146.766 79.0406 146.585 78.9511 146.321 78.9511C146.066 78.9511 145.884 79.0406 145.777 79.2196C145.672 79.3986 145.62 79.598 145.62 79.8179ZM145.087 86.1997L150.487 78.3452H151.403L146.003 86.1997H145.087Z" fill="#50D1AA"/>
<rect x="158.8" y="74.5997" width="16.2" height="16.2" rx="8.1" fill="#88E091" fill-opacity="0.24"/>
<path d="M166.9 87.4247C166.679 87.4247 166.497 87.2631 166.468 87.0534L166.464 86.9951L166.464 79.4442L163.707 82.1722C163.537 82.3403 163.261 82.3409 163.091 82.1735C162.936 82.0213 162.921 81.7827 163.047 81.6143L163.089 81.566L166.591 78.101L166.6 78.0925C166.609 78.0837 166.619 78.0754 166.629 78.0674L166.591 78.101C166.608 78.0843 166.625 78.0693 166.644 78.0559C166.656 78.0478 166.668 78.04 166.681 78.0327C166.709 78.0163 166.738 78.0037 166.769 77.9943C166.779 77.9912 166.79 77.9882 166.801 77.9857C166.81 77.9837 166.818 77.982 166.827 77.9805C166.836 77.9791 166.846 77.9779 166.855 77.9769C166.864 77.9759 166.874 77.9752 166.884 77.9748C166.889 77.9748 166.895 77.9747 166.9 77.9747L166.914 77.9748C166.925 77.9752 166.936 77.9759 166.946 77.977L166.9 77.9747C166.925 77.9747 166.949 77.9767 166.973 77.9807C166.984 77.9825 166.995 77.9847 167.005 77.9873C167.014 77.9895 167.022 77.9918 167.031 77.9944C167.041 77.9974 167.05 78.0009 167.06 78.0047C167.07 78.0087 167.08 78.013 167.09 78.0176C167.098 78.0212 167.105 78.0251 167.113 78.0293C167.127 78.0372 167.14 78.0456 167.153 78.0546C167.155 78.056 167.157 78.0576 167.16 78.0592C167.179 78.0735 167.196 78.0884 167.212 78.1045L170.71 81.566C170.88 81.7341 170.88 82.0061 170.709 82.1735C170.554 82.3257 170.312 82.339 170.141 82.2139L170.093 82.1722L167.336 79.4447L167.336 86.9951C167.336 87.2324 167.141 87.4247 166.9 87.4247Z" fill="#50D1AA"/>
<path d="M76.1556 133.238C74.8885 133.238 73.7635 133.025 72.7806 132.599C71.8033 132.173 71.0363 131.591 70.4794 130.852C69.9283 130.108 69.6556 129.264 69.6613 128.321C69.6556 127.588 69.8147 126.914 70.1385 126.301C70.4624 125.687 70.8999 125.176 71.451 124.767C72.0079 124.352 72.6272 124.088 73.309 123.974V123.855C72.4113 123.656 71.684 123.199 71.1272 122.483C70.576 121.761 70.3033 120.929 70.309 119.985C70.3033 119.088 70.5533 118.287 71.059 117.582C71.5647 116.878 72.2579 116.324 73.1385 115.92C74.0192 115.511 75.0249 115.307 76.1556 115.307C77.2749 115.307 78.2721 115.511 79.1471 115.92C80.0277 116.324 80.7209 116.878 81.2266 117.582C81.738 118.287 81.9937 119.088 81.9937 119.985C81.9937 120.929 81.7124 121.761 81.1499 122.483C80.5931 123.199 79.8743 123.656 78.9937 123.855V123.974C79.6755 124.088 80.2891 124.352 80.8346 124.767C81.3857 125.176 81.8232 125.687 82.1471 126.301C82.4766 126.914 82.6414 127.588 82.6414 128.321C82.6414 129.264 82.363 130.108 81.8062 130.852C81.2493 131.591 80.4823 132.173 79.505 132.599C78.5334 133.025 77.4169 133.238 76.1556 133.238ZM76.1556 130.801C76.809 130.801 77.3772 130.69 77.8601 130.468C78.3431 130.241 78.7181 129.923 78.9851 129.514C79.2522 129.105 79.3885 128.633 79.3942 128.099C79.3885 127.542 79.2437 127.051 78.9596 126.625C78.6812 126.193 78.2976 125.855 77.809 125.61C77.326 125.366 76.7749 125.244 76.1556 125.244C75.5306 125.244 74.9738 125.366 74.4851 125.61C73.9965 125.855 73.6101 126.193 73.326 126.625C73.0476 127.051 72.9113 127.542 72.9169 128.099C72.9113 128.633 73.0419 129.105 73.309 129.514C73.576 129.917 73.951 130.233 74.434 130.46C74.9226 130.687 75.4965 130.801 76.1556 130.801ZM76.1556 122.849C76.6897 122.849 77.1613 122.741 77.5704 122.525C77.9851 122.309 78.3118 122.008 78.5505 121.622C78.7891 121.235 78.9113 120.789 78.9169 120.284C78.9113 119.784 78.7919 119.346 78.559 118.971C78.326 118.591 78.0022 118.298 77.5874 118.093C77.1726 117.883 76.6954 117.778 76.1556 117.778C75.6044 117.778 75.1187 117.883 74.6982 118.093C74.2834 118.298 73.9596 118.591 73.7266 118.971C73.4993 119.346 73.3885 119.784 73.3942 120.284C73.3885 120.789 73.5022 121.235 73.7351 121.622C73.9738 122.003 74.3005 122.304 74.7152 122.525C75.1357 122.741 75.6158 122.849 76.1556 122.849ZM91.8353 133.238C91 133.233 90.1847 133.088 89.3892 132.804C88.5938 132.514 87.8779 132.045 87.2415 131.397C86.6052 130.744 86.0995 129.878 85.7245 128.798C85.3495 127.713 85.1648 126.369 85.1705 124.767C85.1705 123.272 85.3296 121.94 85.6478 120.77C85.966 119.599 86.4233 118.61 87.0199 117.804C87.6165 116.991 88.3353 116.372 89.1762 115.946C90.0228 115.52 90.9688 115.307 92.0142 115.307C93.1108 115.307 94.0824 115.522 94.929 115.954C95.7813 116.386 96.4688 116.977 96.9915 117.727C97.5142 118.471 97.8381 119.312 97.9631 120.25H94.8523C94.6932 119.579 94.3665 119.045 93.8722 118.647C93.3836 118.244 92.7642 118.042 92.0142 118.042C90.804 118.042 89.8722 118.568 89.2188 119.619C88.5711 120.67 88.2444 122.113 88.2387 123.949H88.358C88.6364 123.449 88.9972 123.02 89.4404 122.662C89.8836 122.304 90.3836 122.028 90.9404 121.835C91.5029 121.636 92.0966 121.537 92.7216 121.537C93.7444 121.537 94.662 121.781 95.4745 122.27C96.2927 122.758 96.9404 123.432 97.4177 124.289C97.8949 125.142 98.1307 126.119 98.125 127.221C98.1307 128.369 97.8694 129.4 97.341 130.315C96.8125 131.224 96.0767 131.94 95.1336 132.463C94.1904 132.985 93.091 133.244 91.8353 133.238ZM91.8182 130.682C92.4375 130.682 92.9915 130.531 93.4802 130.23C93.9688 129.929 94.3552 129.522 94.6392 129.011C94.9233 128.5 95.0625 127.926 95.0569 127.289C95.0625 126.664 94.9262 126.099 94.6478 125.593C94.375 125.088 93.9972 124.687 93.5142 124.392C93.0313 124.096 92.4802 123.949 91.8608 123.949C91.4006 123.949 90.9716 124.037 90.5739 124.213C90.1762 124.389 89.8296 124.633 89.5341 124.946C89.2387 125.253 89.0057 125.61 88.8353 126.02C88.6705 126.423 88.5853 126.855 88.5796 127.315C88.5853 127.923 88.7273 128.483 89.0057 128.994C89.2841 129.505 89.6677 129.914 90.1563 130.221C90.6449 130.528 91.1989 130.682 91.8182 130.682ZM103.912 130.613L103.801 131.551C103.722 132.267 103.58 132.994 103.375 133.733C103.176 134.477 102.966 135.162 102.744 135.787C102.523 136.412 102.344 136.903 102.207 137.261H100.128C100.207 136.914 100.315 136.443 100.452 135.846C100.594 135.25 100.73 134.579 100.861 133.835C100.992 133.091 101.08 132.335 101.125 131.568L101.185 130.613H103.912ZM113.191 133.238C112.055 133.238 111.038 133.025 110.14 132.599C109.242 132.167 108.529 131.576 108.001 130.826C107.478 130.076 107.2 129.218 107.166 128.253H110.234C110.291 128.968 110.6 129.554 111.163 130.008C111.725 130.457 112.401 130.682 113.191 130.682C113.81 130.682 114.362 130.539 114.845 130.255C115.327 129.971 115.708 129.576 115.987 129.071C116.265 128.565 116.401 127.988 116.396 127.341C116.401 126.682 116.262 126.096 115.978 125.585C115.694 125.074 115.305 124.673 114.81 124.383C114.316 124.088 113.748 123.94 113.106 123.94C112.583 123.934 112.069 124.031 111.563 124.23C111.058 124.429 110.657 124.69 110.362 125.014L107.506 124.545L108.418 115.545H118.543V118.187H111.035L110.532 122.815H110.634C110.958 122.434 111.416 122.119 112.006 121.869C112.597 121.613 113.245 121.485 113.95 121.485C115.006 121.485 115.95 121.735 116.779 122.235C117.609 122.73 118.262 123.412 118.739 124.281C119.217 125.15 119.455 126.145 119.455 127.264C119.455 128.417 119.188 129.446 118.654 130.349C118.126 131.247 117.39 131.954 116.447 132.471C115.509 132.983 114.424 133.238 113.191 133.238ZM128.37 115.307C129.205 115.312 130.018 115.46 130.808 115.75C131.603 116.034 132.319 116.5 132.955 117.147C133.592 117.789 134.097 118.65 134.472 119.73C134.847 120.809 135.035 122.145 135.035 123.735C135.041 125.235 134.881 126.576 134.558 127.758C134.239 128.934 133.782 129.929 133.185 130.741C132.589 131.554 131.87 132.173 131.029 132.599C130.188 133.025 129.242 133.238 128.191 133.238C127.089 133.238 126.112 133.022 125.259 132.591C124.413 132.159 123.728 131.568 123.205 130.818C122.683 130.068 122.362 129.21 122.242 128.244H125.353C125.512 128.937 125.836 129.488 126.325 129.897C126.819 130.301 127.441 130.503 128.191 130.503C129.401 130.503 130.333 129.977 130.987 128.926C131.64 127.875 131.967 126.414 131.967 124.545H131.847C131.569 125.045 131.208 125.477 130.765 125.841C130.322 126.199 129.819 126.474 129.256 126.667C128.7 126.86 128.109 126.957 127.484 126.957C126.461 126.957 125.541 126.713 124.722 126.224C123.91 125.735 123.265 125.065 122.788 124.213C122.316 123.36 122.077 122.386 122.072 121.289C122.072 120.153 122.333 119.133 122.856 118.23C123.384 117.321 124.12 116.605 125.063 116.082C126.006 115.554 127.109 115.295 128.37 115.307ZM128.379 117.863C127.765 117.863 127.211 118.014 126.717 118.315C126.228 118.61 125.842 119.014 125.558 119.525C125.279 120.031 125.14 120.596 125.14 121.221C125.146 121.841 125.285 122.403 125.558 122.909C125.836 123.414 126.214 123.815 126.691 124.11C127.174 124.406 127.725 124.554 128.345 124.554C128.805 124.554 129.234 124.466 129.631 124.289C130.029 124.113 130.376 123.869 130.671 123.557C130.972 123.238 131.205 122.878 131.37 122.474C131.541 122.071 131.623 121.645 131.617 121.196C131.617 120.599 131.475 120.048 131.191 119.542C130.913 119.037 130.529 118.63 130.041 118.324C129.558 118.017 129.004 117.863 128.379 117.863ZM144.325 133.332C142.921 133.332 141.717 132.977 140.711 132.267C139.711 131.551 138.941 130.52 138.401 129.173C137.867 127.821 137.6 126.193 137.6 124.289C137.606 122.386 137.876 120.767 138.41 119.432C138.95 118.091 139.72 117.068 140.72 116.363C141.725 115.659 142.927 115.307 144.325 115.307C145.722 115.307 146.924 115.659 147.93 116.363C148.935 117.068 149.705 118.091 150.239 119.432C150.779 120.772 151.049 122.392 151.049 124.289C151.049 126.199 150.779 127.829 150.239 129.182C149.705 130.528 148.935 131.557 147.93 132.267C146.93 132.977 145.728 133.332 144.325 133.332ZM144.325 130.664C145.416 130.664 146.276 130.128 146.907 129.054C147.543 127.974 147.862 126.386 147.862 124.289C147.862 122.903 147.717 121.738 147.427 120.795C147.137 119.852 146.728 119.142 146.2 118.664C145.671 118.182 145.046 117.94 144.325 117.94C143.239 117.94 142.381 118.48 141.751 119.559C141.12 120.633 140.802 122.21 140.796 124.289C140.791 125.682 140.93 126.852 141.214 127.801C141.504 128.75 141.913 129.466 142.441 129.949C142.97 130.426 143.597 130.664 144.325 130.664Z" fill="#12141D"/>
<path d="M69.6783 164.2V152.563H71.434V157.62H77.2351V152.563H78.9965V164.2H77.2351V159.126H71.434V164.2H69.6783ZM83.9567 164.393C83.4037 164.393 82.9037 164.291 82.4567 164.086C82.0098 163.878 81.6556 163.577 81.3942 163.183C81.1366 162.789 81.0079 162.306 81.0079 161.734C81.0079 161.241 81.1026 160.836 81.2919 160.518C81.4813 160.2 81.737 159.948 82.059 159.762C82.381 159.577 82.7408 159.436 83.1385 159.342C83.5363 159.247 83.9416 159.175 84.3544 159.126C84.8772 159.065 85.3014 159.016 85.6272 158.978C85.9529 158.936 86.1897 158.87 86.3374 158.779C86.4851 158.688 86.559 158.541 86.559 158.336V158.296C86.559 157.8 86.4188 157.416 86.1385 157.143C85.862 156.87 85.4491 156.734 84.8999 156.734C84.3279 156.734 83.8772 156.861 83.5476 157.114C83.2219 157.364 82.9965 157.643 82.8715 157.95L81.2749 157.586C81.4643 157.056 81.7408 156.628 82.1044 156.302C82.4719 155.972 82.8942 155.734 83.3715 155.586C83.8488 155.435 84.3507 155.359 84.8772 155.359C85.2257 155.359 85.595 155.4 85.9851 155.484C86.3791 155.563 86.7465 155.711 87.0874 155.927C87.4321 156.143 87.7143 156.452 87.934 156.853C88.1537 157.251 88.2635 157.768 88.2635 158.404V164.2H86.6044V163.007H86.5363C86.4264 163.226 86.2616 163.442 86.0419 163.654C85.8223 163.866 85.5401 164.043 85.1954 164.183C84.8507 164.323 84.4378 164.393 83.9567 164.393ZM84.326 163.029C84.7957 163.029 85.1973 162.936 85.5306 162.751C85.8677 162.565 86.1234 162.323 86.2976 162.024C86.4757 161.721 86.5647 161.397 86.5647 161.052V159.927C86.5041 159.988 86.3866 160.044 86.2124 160.097C86.0419 160.147 85.8469 160.19 85.6272 160.228C85.4075 160.262 85.1935 160.294 84.9851 160.325C84.7768 160.351 84.6026 160.374 84.4624 160.393C84.1329 160.435 83.8317 160.505 83.559 160.603C83.2901 160.702 83.0741 160.844 82.9113 161.029C82.7522 161.211 82.6726 161.453 82.6726 161.757C82.6726 162.177 82.8279 162.495 83.1385 162.711C83.4491 162.923 83.845 163.029 84.326 163.029ZM90.5263 167.472V155.472H92.1854V156.887H92.3275C92.4259 156.705 92.568 156.495 92.7536 156.257C92.9392 156.018 93.1968 155.81 93.5263 155.632C93.8559 155.45 94.2915 155.359 94.8331 155.359C95.5377 155.359 96.1665 155.537 96.7195 155.893C97.2725 156.249 97.7062 156.762 98.0206 157.433C98.3388 158.103 98.4979 158.91 98.4979 159.853C98.4979 160.796 98.3407 161.605 98.0263 162.279C97.7119 162.95 97.2801 163.467 96.7309 163.83C96.1816 164.19 95.5547 164.37 94.8502 164.37C94.3199 164.37 93.8862 164.281 93.5491 164.103C93.2157 163.925 92.9544 163.717 92.765 163.478C92.5756 163.239 92.4297 163.027 92.3275 162.842H92.2252V167.472H90.5263ZM92.1911 159.836C92.1911 160.45 92.2801 160.988 92.4581 161.45C92.6362 161.912 92.8937 162.274 93.2309 162.535C93.568 162.793 93.9809 162.921 94.4695 162.921C94.9771 162.921 95.4013 162.787 95.7422 162.518C96.0831 162.245 96.3407 161.876 96.515 161.41C96.693 160.944 96.782 160.419 96.782 159.836C96.782 159.26 96.6949 158.743 96.5206 158.285C96.3502 157.827 96.0926 157.465 95.7479 157.2C95.407 156.935 94.9809 156.802 94.4695 156.802C93.9771 156.802 93.5604 156.929 93.2195 157.183C92.8824 157.436 92.6267 157.791 92.4525 158.245C92.2782 158.7 92.1911 159.23 92.1911 159.836ZM100.401 167.472V155.472H102.06V156.887H102.202C102.301 156.705 102.443 156.495 102.629 156.257C102.814 156.018 103.072 155.81 103.401 155.632C103.731 155.45 104.166 155.359 104.708 155.359C105.413 155.359 106.041 155.537 106.595 155.893C107.148 156.249 107.581 156.762 107.896 157.433C108.214 158.103 108.373 158.91 108.373 159.853C108.373 160.796 108.216 161.605 107.901 162.279C107.587 162.95 107.155 163.467 106.606 163.83C106.057 164.19 105.43 164.37 104.725 164.37C104.195 164.37 103.761 164.281 103.424 164.103C103.091 163.925 102.829 163.717 102.64 163.478C102.451 163.239 102.305 163.027 102.202 162.842H102.1V167.472H100.401ZM102.066 159.836C102.066 160.45 102.155 160.988 102.333 161.45C102.511 161.912 102.769 162.274 103.106 162.535C103.443 162.793 103.856 162.921 104.345 162.921C104.852 162.921 105.276 162.787 105.617 162.518C105.958 162.245 106.216 161.876 106.39 161.41C106.568 160.944 106.657 160.419 106.657 159.836C106.657 159.26 106.57 158.743 106.396 158.285C106.225 157.827 105.968 157.465 105.623 157.2C105.282 156.935 104.856 156.802 104.345 156.802C103.852 156.802 103.435 156.929 103.095 157.183C102.757 157.436 102.502 157.791 102.327 158.245C102.153 158.7 102.066 159.23 102.066 159.836ZM111.053 167.472C110.8 167.472 110.568 167.452 110.36 167.41C110.152 167.372 109.996 167.33 109.894 167.285L110.303 165.893C110.614 165.976 110.89 166.012 111.133 166.001C111.375 165.989 111.589 165.899 111.775 165.728C111.964 165.558 112.131 165.279 112.275 164.893L112.485 164.313L109.292 155.472H111.11L113.32 162.245H113.411L115.621 155.472H117.445L113.849 165.364C113.682 165.819 113.47 166.203 113.212 166.518C112.955 166.836 112.648 167.075 112.292 167.234C111.936 167.393 111.523 167.472 111.053 167.472ZM133.077 156.347H131.305C131.237 155.969 131.11 155.635 130.924 155.347C130.738 155.06 130.511 154.815 130.242 154.614C129.973 154.414 129.672 154.262 129.339 154.16C129.009 154.058 128.659 154.007 128.288 154.007C127.617 154.007 127.017 154.175 126.487 154.512C125.96 154.849 125.543 155.344 125.237 155.995C124.934 156.647 124.782 157.442 124.782 158.382C124.782 159.328 124.934 160.128 125.237 160.779C125.543 161.431 125.962 161.923 126.492 162.257C127.023 162.59 127.619 162.757 128.282 162.757C128.649 162.757 128.998 162.707 129.327 162.609C129.661 162.507 129.962 162.357 130.231 162.16C130.5 161.963 130.727 161.722 130.913 161.438C131.102 161.15 131.233 160.821 131.305 160.45L133.077 160.455C132.983 161.027 132.799 161.554 132.526 162.035C132.257 162.512 131.911 162.925 131.487 163.274C131.066 163.618 130.585 163.885 130.043 164.075C129.502 164.264 128.911 164.359 128.271 164.359C127.263 164.359 126.365 164.12 125.577 163.643C124.79 163.162 124.168 162.474 123.714 161.58C123.263 160.686 123.038 159.62 123.038 158.382C123.038 157.139 123.265 156.073 123.72 155.183C124.174 154.289 124.795 153.603 125.583 153.126C126.371 152.645 127.267 152.404 128.271 152.404C128.888 152.404 129.464 152.493 129.998 152.671C130.536 152.846 131.019 153.103 131.447 153.444C131.875 153.781 132.229 154.194 132.509 154.683C132.79 155.168 132.979 155.722 133.077 156.347ZM140.57 160.58V155.472H142.275V164.2H140.604V162.688H140.514C140.313 163.154 139.991 163.543 139.548 163.853C139.108 164.16 138.561 164.313 137.906 164.313C137.345 164.313 136.849 164.19 136.417 163.944C135.989 163.694 135.652 163.325 135.406 162.836C135.163 162.347 135.042 161.743 135.042 161.024V155.472H136.741V160.819C136.741 161.414 136.906 161.887 137.235 162.239C137.565 162.592 137.993 162.768 138.519 162.768C138.837 162.768 139.154 162.688 139.468 162.529C139.786 162.37 140.05 162.13 140.258 161.808C140.47 161.486 140.574 161.077 140.57 160.58ZM151.097 157.603L149.558 157.876C149.493 157.679 149.391 157.491 149.251 157.313C149.114 157.135 148.929 156.989 148.694 156.876C148.459 156.762 148.166 156.705 147.813 156.705C147.332 156.705 146.931 156.813 146.609 157.029C146.287 157.241 146.126 157.516 146.126 157.853C146.126 158.145 146.234 158.38 146.45 158.558C146.666 158.736 147.014 158.882 147.495 158.995L148.881 159.313C149.684 159.499 150.283 159.785 150.677 160.171C151.071 160.558 151.268 161.06 151.268 161.677C151.268 162.2 151.116 162.666 150.813 163.075C150.514 163.48 150.095 163.798 149.558 164.029C149.023 164.26 148.404 164.376 147.7 164.376C146.722 164.376 145.925 164.168 145.308 163.751C144.69 163.33 144.311 162.734 144.171 161.961L145.813 161.711C145.916 162.139 146.126 162.463 146.444 162.683C146.762 162.899 147.177 163.007 147.688 163.007C148.245 163.007 148.69 162.891 149.023 162.66C149.357 162.425 149.523 162.139 149.523 161.802C149.523 161.529 149.421 161.3 149.217 161.114C149.016 160.929 148.707 160.789 148.291 160.694L146.813 160.37C145.999 160.185 145.397 159.889 145.006 159.484C144.62 159.078 144.427 158.565 144.427 157.944C144.427 157.429 144.571 156.978 144.859 156.592C145.147 156.205 145.544 155.904 146.052 155.688C146.559 155.469 147.141 155.359 147.796 155.359C148.739 155.359 149.482 155.563 150.023 155.972C150.565 156.378 150.923 156.921 151.097 157.603ZM157.21 155.472V156.836H152.443V155.472H157.21ZM153.721 153.382H155.42V161.637C155.42 161.967 155.469 162.215 155.568 162.382C155.666 162.544 155.793 162.656 155.948 162.717C156.107 162.774 156.28 162.802 156.465 162.802C156.602 162.802 156.721 162.793 156.823 162.774C156.925 162.755 157.005 162.739 157.062 162.728L157.369 164.132C157.27 164.169 157.13 164.207 156.948 164.245C156.766 164.287 156.539 164.31 156.266 164.313C155.819 164.321 155.403 164.241 155.016 164.075C154.63 163.908 154.318 163.65 154.079 163.302C153.84 162.953 153.721 162.516 153.721 161.989V153.382ZM162.671 164.376C161.853 164.376 161.139 164.188 160.529 163.813C159.919 163.438 159.446 162.914 159.109 162.239C158.772 161.565 158.603 160.777 158.603 159.876C158.603 158.971 158.772 158.179 159.109 157.501C159.446 156.823 159.919 156.296 160.529 155.921C161.139 155.546 161.853 155.359 162.671 155.359C163.489 155.359 164.203 155.546 164.813 155.921C165.423 156.296 165.897 156.823 166.234 157.501C166.571 158.179 166.739 158.971 166.739 159.876C166.739 160.777 166.571 161.565 166.234 162.239C165.897 162.914 165.423 163.438 164.813 163.813C164.203 164.188 163.489 164.376 162.671 164.376ZM162.677 162.95C163.207 162.95 163.647 162.81 163.995 162.529C164.344 162.249 164.601 161.876 164.768 161.41C164.938 160.944 165.023 160.431 165.023 159.87C165.023 159.313 164.938 158.802 164.768 158.336C164.601 157.866 164.344 157.489 163.995 157.205C163.647 156.921 163.207 156.779 162.677 156.779C162.143 156.779 161.7 156.921 161.347 157.205C160.999 157.489 160.739 157.866 160.569 158.336C160.402 158.802 160.319 159.313 160.319 159.87C160.319 160.431 160.402 160.944 160.569 161.41C160.739 161.876 160.999 162.249 161.347 162.529C161.7 162.81 162.143 162.95 162.677 162.95ZM168.636 164.2V155.472H170.266V156.893H170.374C170.556 156.412 170.854 156.037 171.266 155.768C171.679 155.495 172.174 155.359 172.749 155.359C173.333 155.359 173.821 155.495 174.215 155.768C174.613 156.041 174.907 156.416 175.096 156.893H175.187C175.395 156.427 175.727 156.056 176.181 155.779C176.636 155.499 177.177 155.359 177.806 155.359C178.598 155.359 179.244 155.607 179.744 156.103C180.247 156.599 180.499 157.347 180.499 158.347V164.2H178.8V158.507C178.8 157.916 178.639 157.488 178.318 157.222C177.996 156.957 177.611 156.825 177.164 156.825C176.611 156.825 176.181 156.995 175.874 157.336C175.568 157.673 175.414 158.107 175.414 158.637V164.2H173.721V158.399C173.721 157.925 173.573 157.544 173.278 157.257C172.982 156.969 172.598 156.825 172.124 156.825C171.802 156.825 171.505 156.91 171.232 157.08C170.963 157.247 170.746 157.48 170.579 157.779C170.416 158.078 170.335 158.425 170.335 158.819V164.2H168.636ZM186.538 164.376C185.678 164.376 184.937 164.192 184.316 163.825C183.699 163.453 183.221 162.933 182.884 162.262C182.551 161.588 182.384 160.798 182.384 159.893C182.384 158.999 182.551 158.211 182.884 157.529C183.221 156.847 183.691 156.315 184.293 155.933C184.899 155.55 185.608 155.359 186.418 155.359C186.911 155.359 187.388 155.44 187.85 155.603C188.312 155.766 188.727 156.022 189.095 156.37C189.462 156.719 189.752 157.171 189.964 157.728C190.176 158.281 190.282 158.953 190.282 159.745V160.347H183.345V159.075H188.617C188.617 158.628 188.526 158.232 188.345 157.887C188.163 157.539 187.907 157.264 187.577 157.063C187.252 156.863 186.869 156.762 186.43 156.762C185.952 156.762 185.536 156.88 185.18 157.114C184.827 157.346 184.555 157.649 184.362 158.024C184.172 158.395 184.077 158.798 184.077 159.234V160.228C184.077 160.811 184.18 161.308 184.384 161.717C184.593 162.126 184.882 162.438 185.254 162.654C185.625 162.866 186.059 162.972 186.555 162.972C186.877 162.972 187.17 162.927 187.435 162.836C187.701 162.741 187.93 162.601 188.123 162.416C188.316 162.23 188.464 162.001 188.566 161.728L190.174 162.018C190.045 162.491 189.814 162.906 189.481 163.262C189.151 163.614 188.737 163.889 188.237 164.086C187.74 164.279 187.174 164.376 186.538 164.376ZM192.167 164.2V155.472H193.809V156.859H193.9C194.059 156.389 194.339 156.02 194.741 155.751C195.146 155.478 195.604 155.342 196.116 155.342C196.222 155.342 196.347 155.346 196.491 155.353C196.639 155.361 196.754 155.37 196.837 155.382V157.007C196.769 156.988 196.648 156.967 196.474 156.944C196.3 156.918 196.125 156.904 195.951 156.904C195.55 156.904 195.192 156.989 194.877 157.16C194.567 157.327 194.32 157.56 194.139 157.859C193.957 158.154 193.866 158.491 193.866 158.87V164.2H192.167ZM204.847 157.603L203.308 157.876C203.243 157.679 203.141 157.491 203.001 157.313C202.864 157.135 202.679 156.989 202.444 156.876C202.209 156.762 201.916 156.705 201.563 156.705C201.082 156.705 200.681 156.813 200.359 157.029C200.037 157.241 199.876 157.516 199.876 157.853C199.876 158.145 199.984 158.38 200.2 158.558C200.416 158.736 200.764 158.882 201.245 158.995L202.631 159.313C203.434 159.499 204.033 159.785 204.427 160.171C204.821 160.558 205.018 161.06 205.018 161.677C205.018 162.2 204.866 162.666 204.563 163.075C204.264 163.48 203.845 163.798 203.308 164.029C202.773 164.26 202.154 164.376 201.45 164.376C200.472 164.376 199.675 164.168 199.058 163.751C198.44 163.33 198.061 162.734 197.921 161.961L199.563 161.711C199.666 162.139 199.876 162.463 200.194 162.683C200.512 162.899 200.927 163.007 201.438 163.007C201.995 163.007 202.44 162.891 202.773 162.66C203.107 162.425 203.273 162.139 203.273 161.802C203.273 161.529 203.171 161.3 202.967 161.114C202.766 160.929 202.457 160.789 202.041 160.694L200.563 160.37C199.749 160.185 199.147 159.889 198.756 159.484C198.37 159.078 198.177 158.565 198.177 157.944C198.177 157.429 198.321 156.978 198.609 156.592C198.897 156.205 199.294 155.904 199.802 155.688C200.309 155.469 200.891 155.359 201.546 155.359C202.489 155.359 203.232 155.563 203.773 155.972C204.315 156.378 204.673 156.921 204.847 157.603Z" fill="black" fill-opacity="0.25"/>
</g>
<defs>
<filter id="filter0_d_9_208" x="0" y="0.799707" width="287.1" height="240.4" filterUnits="userSpaceOnUse" color-interpolation-filters="sRGB">
<feFlood flood-opacity="0" result="BackgroundImageFix"/>
<feColorMatrix in="SourceAlpha" type="matrix" values="0 0 0 0 0 0 0 0 0 0 0 0 0 0 0 0 0 0 127 0" result="hardAlpha"/>
<feOffset dy="3.6"/>
<feGaussianBlur stdDeviation="27"/>
<feComposite in2="hardAlpha" operator="out"/>
<feColorMatrix type="matrix" values="0 0 0 0 0 0 0 0 0 0 0 0 0 0 0 0 0 0 0.08 0"/>
<feBlend mode="normal" in2="BackgroundImageFix" result="effect1_dropShadow_9_208"/>
<feBlend mode="normal" in="SourceGraphic" in2="effect1_dropShadow_9_208" result="shape"/>
</filter>
</defs>
</svg>
