<svg width="19" height="19" viewBox="0 0 19 19" fill="none" xmlns="http://www.w3.org/2000/svg">
<circle cx="9.21802" cy="9.13867" r="9" fill="#12141D"/>
<path d="M13.7568 5.75266C13.6895 5.68482 13.6094 5.63098 13.5212 5.59424C13.433 5.55749 13.3384 5.53857 13.2429 5.53857C13.1473 5.53857 13.0527 5.55749 12.9645 5.59424C12.8763 5.63098 12.7963 5.68482 12.729 5.75266L7.33699 11.1519L5.07161 8.87931C5.00176 8.81183 4.91929 8.75877 4.82892 8.72316C4.73856 8.68754 4.64206 8.67008 4.54495 8.67176C4.44783 8.67344 4.352 8.69423 4.26292 8.73295C4.17384 8.77167 4.09326 8.82755 4.02578 8.89741C3.9583 8.96727 3.90523 9.04973 3.86962 9.1401C3.83401 9.23046 3.81655 9.32696 3.81823 9.42407C3.81991 9.52119 3.8407 9.61702 3.87941 9.7061C3.91813 9.79518 3.97401 9.87576 4.04387 9.94324L6.82312 12.7225C6.8904 12.7903 6.97045 12.8442 7.05865 12.8809C7.14684 12.9177 7.24144 12.9366 7.33699 12.9366C7.43253 12.9366 7.52713 12.9177 7.61533 12.8809C7.70353 12.8442 7.78358 12.7903 7.85086 12.7225L13.7568 6.81659C13.8302 6.74882 13.8889 6.66656 13.929 6.575C13.9691 6.48345 13.9898 6.38458 13.9898 6.28463C13.9898 6.18467 13.9691 6.0858 13.929 5.99425C13.8889 5.90269 13.8302 5.82044 13.7568 5.75266Z" fill="#D1EDF5"/>
</svg>
