<svg width="18" height="18" viewBox="0 0 18 18" fill="none" xmlns="http://www.w3.org/2000/svg">
<g clip-path="url(#clip0_25_554)">
<path d="M15.7501 7.6049C14.4226 7.6049 13.1251 7.1924 12.0526 6.4199V11.8049C12.0524 12.802 11.7479 13.7754 11.1798 14.5948C10.6116 15.4142 9.80683 16.0407 8.87305 16.3905C7.93928 16.7403 6.92099 16.7967 5.95429 16.5522C4.98759 16.3077 4.11854 15.774 3.46333 15.0224C2.80811 14.2707 2.39793 13.337 2.28763 12.346C2.17733 11.3549 2.37215 10.3539 2.84606 9.47655C3.31998 8.59923 4.05039 7.88747 4.93968 7.43642C5.82896 6.98536 6.83474 6.8165 7.82257 6.9524V9.6599C7.37012 9.51761 6.88427 9.52194 6.43442 9.67228C5.98457 9.82261 5.59374 10.1113 5.31774 10.497C5.04174 10.8827 4.8947 11.3458 4.89762 11.8201C4.90053 12.2944 5.05325 12.7556 5.33397 13.1379C5.61469 13.5202 6.00904 13.8041 6.4607 13.9489C6.91236 14.0937 7.39822 14.092 7.8489 13.9442C8.29957 13.7963 8.692 13.5099 8.97012 13.1257C9.24825 12.7415 9.39786 12.2792 9.39757 11.8049V1.2749H12.0526C12.0475 1.76151 12.1398 2.24422 12.3239 2.69468C12.5081 3.14514 12.7803 3.55426 13.1248 3.89801C13.4692 4.24176 13.8789 4.51322 14.3297 4.69643C14.7806 4.87965 15.2635 4.97092 15.7501 4.9649V7.6049Z" fill="#FFFDFA"/>
</g>
<defs>
<clipPath id="clip0_25_554">
<rect width="18" height="18" fill="white"/>
</clipPath>
</defs>
</svg>
