<svg width="41" height="41" viewBox="0 0 41 41" fill="none" xmlns="http://www.w3.org/2000/svg">
<path d="M37.4331 32.3764L30.3644 25.3076L31.3069 24.3651L30.3644 23.4226L27.5381 26.2489L22.8244 21.5364L28.4869 15.8714C29.2406 16.1401 30.0294 16.2764 30.8394 16.2764C32.7056 16.2764 34.4606 15.5489 35.7819 14.2301C37.8194 12.1914 38.3969 9.16263 37.2544 6.51263L36.8656 5.61013L33.8281 8.64763L31.3831 8.68138L31.4156 6.34888L34.5119 3.25263L33.6119 2.86263C32.7294 2.48013 31.7906 2.28638 30.8256 2.28638C28.9581 2.28638 27.2044 3.01388 25.8856 4.33263C23.9531 6.26388 23.3319 9.08513 24.2469 11.6326L18.5856 17.2939L10.5744 9.28388L11.5169 8.34138L6.33562 3.15888L3.50562 5.98513L8.68937 11.1689L9.63062 10.2264L17.6419 18.2364L11.9806 23.8976C11.2244 23.6264 10.4319 23.4901 9.62062 23.4901C7.75437 23.4901 5.99937 24.2176 4.67937 25.5364C2.63812 27.5764 2.06062 30.6101 3.20937 33.2626L3.59937 34.1626L6.69562 31.0664L9.02687 31.0351L8.99312 33.4801L5.95562 36.5176L6.85812 36.9064C7.73812 37.2851 8.67312 37.4789 9.63437 37.4789C11.5019 37.4789 13.2556 36.7526 14.5744 35.4339C16.5044 33.5039 17.1256 30.6851 16.2169 28.1426L21.8819 22.4776L26.5956 27.1889L23.7669 30.0176L24.7094 30.9601L25.6519 30.0176L32.7194 37.0851C33.3481 37.7151 34.1869 38.0614 35.0756 38.0614C35.9644 38.0614 36.8019 37.7151 37.4319 37.0851C38.7306 35.7864 38.7306 33.6726 37.4319 32.3739L37.4331 32.3764ZM5.39187 5.98638L6.33437 5.04513L9.63187 8.34263L8.68937 9.28513L5.39187 5.98638ZM14.8281 28.2464C15.7519 30.3914 15.2831 32.8451 13.6344 34.4951C12.5669 35.5626 11.1481 36.1501 9.63687 36.1501C9.20312 36.1501 8.77562 36.1014 8.36062 36.0051L10.3219 34.0439L10.3806 29.6876L6.13812 29.7451L4.11437 31.7689C3.66937 29.8814 4.21562 27.8901 5.62437 26.4826C6.69187 25.4151 8.11187 24.8264 9.62312 24.8264C10.4056 24.8264 11.1644 24.9826 11.8806 25.2926L12.2969 25.4726L25.8206 11.9489L25.6406 11.5326C24.7106 9.38388 25.1781 6.93013 26.8306 5.27763C27.8981 4.21013 29.3181 3.62138 30.8281 3.62138C31.2656 3.62138 31.6969 3.67138 32.1156 3.76763L30.0931 5.79013L30.0344 10.0326L34.3906 9.97388L36.3531 8.01138C36.7931 9.89513 36.2456 11.8826 34.8419 13.2876C33.7731 14.3551 32.3531 14.9439 30.8419 14.9439C30.0619 14.9439 29.3044 14.7876 28.5906 14.4801L28.1756 14.3014L14.6494 27.8301L14.8281 28.2464ZM36.4919 36.1451C36.1144 36.5226 35.6119 36.7314 35.0781 36.7314C34.5444 36.7314 34.0419 36.5226 33.6644 36.1451L26.5969 29.0776L29.4244 26.2501L36.4931 33.3189C37.2731 34.0989 37.2731 35.3664 36.4944 36.1451H36.4919Z" fill="#2B59FF"/>
</svg>
