<svg width="18" height="18" viewBox="0 0 18 18" fill="none" xmlns="http://www.w3.org/2000/svg">
<g clip-path="url(#clip0_25_547)">
<g clip-path="url(#clip1_25_547)">
<path fill-rule="evenodd" clip-rule="evenodd" d="M16.05 3.3825C16.4284 3.48708 16.7729 3.68885 17.0492 3.96779C17.3255 4.24672 17.524 4.5931 17.625 4.9725C18.015 6.3825 18 9.3225 18 9.3225C18 9.3225 18 12.24 17.625 13.6425C17.5234 14.0228 17.3237 14.3698 17.046 14.6488C16.7683 14.9278 16.4223 15.1291 16.0425 15.2325C14.6325 15.6075 9 15.6075 9 15.6075C9 15.6075 3.375 15.6075 1.9575 15.2175C1.5763 15.1152 1.22872 14.9145 0.949633 14.6354C0.67055 14.3563 0.469789 14.0087 0.3675 13.6275C0 12.24 0 9.3 0 9.3C0 9.3 0 6.375 0.375 4.9725C0.478415 4.59264 0.677501 4.24564 0.95324 3.96465C1.22898 3.68366 1.57216 3.47806 1.95 3.3675C3.3675 3 9 3 9 3C9 3 14.6325 3 16.0425 3.3825H16.05ZM7.2 6.6075L11.895 9.3075L7.2 12V6.6V6.6075Z" fill="#FFFDFA"/>
</g>
</g>
<defs>
<clipPath id="clip0_25_547">
<rect width="18" height="18" fill="white"/>
</clipPath>
<clipPath id="clip1_25_547">
<rect width="18" height="18" fill="white"/>
</clipPath>
</defs>
</svg>
