<svg width="28" height="28" viewBox="0 0 28 28" fill="none" xmlns="http://www.w3.org/2000/svg">
<mask id="mask0_205_6512" style="mask-type:luminance" maskUnits="userSpaceOnUse" x="0" y="3" width="28" height="22">
<path d="M14.0001 4.66602C19.1567 4.66602 23.3334 8.84268 23.3334 13.9993C23.3334 19.156 19.1567 23.3327 14.0001 23.3327C8.84341 23.3327 4.66675 19.156 4.66675 13.9993C4.66675 8.84268 8.84341 4.66602 14.0001 4.66602Z" stroke="white" stroke-width="2" stroke-linecap="round" stroke-linejoin="round"/>
<path d="M4.92343 4.92188C-0.0815722 9.93854 -0.0815722 18.0585 4.92343 23.0752" stroke="white" stroke-width="2" stroke-linecap="round" stroke-linejoin="round"/>
<path d="M23.0767 4.92188C28.0817 9.93854 28.0817 18.0585 23.0767 23.0752" stroke="white" stroke-width="2" stroke-linecap="round" stroke-linejoin="round"/>
<path d="M4.66683 7H23.3335C24.8035 8.94833 25.6668 11.375 25.6668 14C25.6668 16.625 24.8035 19.0517 23.3335 21H4.66683C3.19683 19.0517 2.3335 16.625 2.3335 14C2.3335 11.375 3.19683 8.94833 4.66683 7Z" fill="black"/>
<path d="M8.40008 18.6654V14.932H6.53341V18.6654H4.66675V11.1987C4.66675 10.7087 4.86508 10.2304 5.21508 9.88036C5.56508 9.53036 6.04341 9.33203 6.53341 9.33203H8.40008C9.42675 9.33203 10.2667 10.172 10.2667 11.1987V18.6654H8.40008ZM8.40008 13.0654V11.1987H6.53341V13.0654H8.40008Z" fill="white"/>
<path d="M15.4002 13.9987C16.1469 13.9987 16.8002 14.652 16.8002 15.3987V16.7987C16.8002 17.0437 16.7535 17.2887 16.6602 17.5104C16.5669 17.732 16.4269 17.942 16.2519 18.117C16.0769 18.292 15.8785 18.432 15.6452 18.5254C15.4235 18.6187 15.1785 18.6654 14.9335 18.6654H11.2002V9.33203H14.9335C15.4235 9.33203 15.9019 9.53036 16.2519 9.88036C16.6019 10.2304 16.8002 10.7087 16.8002 11.1987V12.5987C16.8002 13.3454 16.1469 13.9987 15.4002 13.9987ZM14.9335 14.932H13.0669V16.7987H14.9335V14.932ZM14.9335 11.1987H13.0669V13.0654H14.9335V11.1987Z" fill="white"/>
<path d="M23.3334 11.1987V9.33203H19.6001C18.5734 9.33203 17.7334 10.172 17.7334 11.1987V13.0654C17.7334 13.5554 17.9317 14.0337 18.2817 14.3837C18.6317 14.7337 19.1101 14.932 19.6001 14.932H21.4667V16.7987H17.7334V18.6654H21.4667C22.4934 18.6654 23.3334 17.8254 23.3334 16.7987V14.932C23.3334 14.442 23.1351 13.9637 22.7851 13.6137C22.4351 13.2637 21.9567 13.0654 21.4667 13.0654H19.6001V11.1987H23.3334Z" fill="white"/>
</mask>
<g mask="url(#mask0_205_6512)">
<path d="M28 0H0V28H28V0Z" fill="#12141D"/>
</g>
</svg>
