<svg width="28" height="28" viewBox="0 0 28 28" fill="none" xmlns="http://www.w3.org/2000/svg">
<path fill-rule="evenodd" clip-rule="evenodd" d="M11.6667 18.6667C11.9761 18.6667 12.2728 18.7896 12.4916 19.0084C12.7104 19.2272 12.8333 19.5239 12.8333 19.8333V21.2007C12.8328 22.1284 12.464 23.0181 11.8078 23.674L11.3248 24.1582C11.1048 24.3707 10.8101 24.4883 10.5042 24.4856C10.1983 24.483 9.90569 24.3603 9.68938 24.144C9.47307 23.9276 9.35037 23.635 9.34771 23.3291C9.34506 23.0232 9.46265 22.7285 9.67517 22.5085L10.1582 22.0255C10.377 21.8068 10.4999 21.5101 10.5 21.2007V19.8333C10.5 19.5239 10.6229 19.2272 10.8417 19.0084C11.0605 18.7896 11.3572 18.6667 11.6667 18.6667ZM16.3333 18.6667C16.6191 18.6667 16.8949 18.7716 17.1084 18.9615C17.322 19.1514 17.4584 19.413 17.4918 19.6968L17.5 19.8333V21.2007C17.5 21.4571 17.5844 21.7064 17.7403 21.91L17.8418 22.0255L18.3248 22.5085C18.5341 22.7185 18.6556 23.0002 18.6646 23.2964C18.6736 23.5927 18.5696 23.8813 18.3735 24.1037C18.1775 24.326 17.9042 24.4654 17.6091 24.4935C17.314 24.5216 17.0193 24.4363 16.7848 24.255L16.6752 24.1582L16.1922 23.6752C15.5924 23.0753 15.2309 22.2781 15.1748 21.4317L15.1667 21.2007V19.8333C15.1667 19.5239 15.2896 19.2272 15.5084 19.0084C15.7272 18.7896 16.0239 18.6667 16.3333 18.6667ZM7 18.6667C7.28576 18.6667 7.56156 18.7716 7.7751 18.9615C7.98864 19.1514 8.12507 19.413 8.1585 19.6968L8.16667 19.8333V20.5485C8.16649 21.0063 8.03167 21.4538 7.779 21.8355C7.52634 22.2172 7.16698 22.5162 6.74567 22.6952L6.57067 22.7617L5.03533 23.2738C4.75324 23.3668 4.44631 23.3487 4.17712 23.2231C3.90794 23.0976 3.69676 22.8741 3.58666 22.5983C3.47656 22.3224 3.47581 22.0149 3.58458 21.7386C3.69334 21.4622 3.90343 21.2377 4.172 21.1108L4.298 21.0595L5.83333 20.5485V19.8333C5.83333 19.5239 5.95625 19.2272 6.17504 19.0084C6.39383 18.7896 6.69058 18.6667 7 18.6667ZM21 18.6667C21.2858 18.6667 21.5616 18.7716 21.7751 18.9615C21.9886 19.1514 22.1251 19.413 22.1585 19.6968L22.1667 19.8333V20.5485L23.702 21.0595C23.9851 21.1531 24.2216 21.3515 24.363 21.614C24.5044 21.8765 24.54 22.1832 24.4623 22.471C24.3847 22.7589 24.1998 23.0062 23.9455 23.162C23.6913 23.3178 23.3871 23.3703 23.0953 23.3088L22.9647 23.2738L21.4293 22.7605C20.995 22.616 20.6128 22.3469 20.3303 21.9868C20.0477 21.6267 19.8773 21.1914 19.8403 20.7352L19.8333 20.5485V19.8333C19.8333 19.5239 19.9562 19.2272 20.175 19.0084C20.3938 18.7896 20.6906 18.6667 21 18.6667ZM21 3.5C21.8927 3.49995 22.7518 3.84105 23.4013 4.4535C24.0508 5.06595 24.4418 5.90346 24.4942 6.79467L24.5 7V14C24.5 14.8927 24.159 15.7518 23.5465 16.4013C22.934 17.0508 22.0965 17.4418 21.2053 17.4942L21 17.5H7C6.10725 17.5001 5.24823 17.159 4.5987 16.5465C3.94916 15.9341 3.55821 15.0965 3.50583 14.2053L3.5 14V7C3.49995 6.10725 3.84105 5.24823 4.4535 4.5987C5.06595 3.94916 5.90346 3.55821 6.79467 3.50583L7 3.5H21ZM21 12.8333H7C6.69058 12.8333 6.39383 12.9563 6.17504 13.175C5.95625 13.3938 5.83333 13.6906 5.83333 14V15.1667H22.1667V14C22.1667 13.6906 22.0438 13.3938 21.825 13.175C21.6062 12.9563 21.3094 12.8333 21 12.8333ZM19.8333 7C19.5239 7 19.2272 7.12292 19.0084 7.34171C18.7896 7.5605 18.6667 7.85725 18.6667 8.16667C18.6667 8.47609 18.7896 8.77283 19.0084 8.99162C19.2272 9.21042 19.5239 9.33333 19.8333 9.33333C20.1428 9.33333 20.4395 9.21042 20.6583 8.99162C20.8771 8.77283 21 8.47609 21 8.16667C21 7.85725 20.8771 7.5605 20.6583 7.34171C20.4395 7.12292 20.1428 7 19.8333 7Z" fill="black"/>
</svg>
