<svg width="29" height="28" viewBox="0 0 29 28" fill="none" xmlns="http://www.w3.org/2000/svg">
<path d="M16.6667 9.33398C16.6667 10.1 16.5158 10.8586 16.2226 11.5663C15.9295 12.274 15.4998 12.9171 14.9581 13.4588C14.4164 14.0005 13.7734 14.4301 13.0657 14.7233C12.3579 15.0164 11.5994 15.1673 10.8333 15.1673C9.28624 15.1673 7.80251 14.5527 6.70854 13.4588C5.61458 12.3648 5 10.8811 5 9.33398C5 7.78689 5.61458 6.30316 6.70854 5.20919C7.80251 4.11523 9.28624 3.50065 10.8333 3.50065C11.5994 3.50065 12.3579 3.65153 13.0657 3.94469C13.7734 4.23784 14.4164 4.66752 14.9581 5.20919C15.4998 5.75087 15.9295 6.39393 16.2226 7.10166C16.5158 7.8094 16.6667 8.56794 16.6667 9.33398ZM12.5367 18.1423L15.5 21.0357L13.1667 21.059L9.08333 25.1773L7.33333 23.439L12.5367 18.1423ZM20.1667 2.33398C21.4267 2.33398 22.5 3.36065 22.5 4.66732C22.5 5.92732 21.4733 7.00065 20.1667 7.00065C18.9067 7.00065 17.8333 5.97398 17.8333 4.66732C17.8333 3.40732 18.8717 2.33398 20.1667 2.33398ZM17.145 17.5007H13.855L20.505 24.1623L22.1617 22.5057L17.145 17.5007ZM17.9733 16.6723L22.9783 21.689L23.235 21.934C23.5033 21.4907 23.6667 21.0007 23.6667 20.4173V11.084C23.6667 10.3104 23.3594 9.56857 22.8124 9.02159C22.2654 8.47461 21.5235 8.16732 20.75 8.16732C19.9765 8.16732 19.2346 8.47461 18.6876 9.02159C18.1406 9.56857 17.8333 10.3104 17.8333 11.084V16.5323L17.9733 16.6723Z" fill="black"/>
</svg>
