<svg width="29" height="28" viewBox="0 0 29 28" fill="none" xmlns="http://www.w3.org/2000/svg">
<path d="M9.76683 19.8333V18.0833C9.76683 16.45 8.1335 15.1667 6.50016 15.1667C4.86683 15.1667 3.2335 16.45 3.2335 18.0833V19.8333C2.5335 19.8333 1.8335 20.5333 1.8335 21.2333V25.3167C1.8335 26.1333 2.5335 26.8333 3.2335 26.8333H9.65016C10.4668 26.8333 11.1668 26.1333 11.1668 25.4333V21.35C11.1668 20.5333 10.4668 19.8333 9.76683 19.8333ZM8.25016 19.8333H4.75016V18.0833C4.75016 17.15 5.56683 16.5667 6.50016 16.5667C7.4335 16.5667 8.25016 17.15 8.25016 18.0833V19.8333ZM25.1668 3.5H13.5002L4.16683 12.8333V13.3467C4.8785 13.0317 5.67183 12.8333 6.50016 12.8333C9.5335 12.8333 12.1002 15.2367 12.1002 18.0833V18.375C12.9518 19.0867 13.5002 20.16 13.5002 21.35V24.5H26.3335V4.66667C26.3335 4.025 25.8085 3.5 25.1668 3.5ZM22.8335 18.6667H19.3335V16.3333H22.8335V18.6667ZM24.0002 12.8333H7.4685L14.4685 5.83333H24.0002V12.8333Z" fill="black"/>
</svg>
