<svg width="22" height="25" viewBox="0 0 22 25" fill="none" xmlns="http://www.w3.org/2000/svg">
<path fill-rule="evenodd" clip-rule="evenodd" d="M8.66667 15.6667C8.97609 15.6667 9.27283 15.7896 9.49162 16.0084C9.71042 16.2272 9.83333 16.5239 9.83333 16.8333V18.2007C9.83283 19.1284 9.46397 20.0181 8.80783 20.674L8.32483 21.1582C8.1048 21.3707 7.81009 21.4883 7.5042 21.4856C7.1983 21.483 6.90569 21.3603 6.68938 21.144C6.47307 20.9276 6.35037 20.635 6.34771 20.3291C6.34506 20.0232 6.46265 19.7285 6.67517 19.5085L7.15817 19.0255C7.37697 18.8068 7.49993 18.5101 7.5 18.2007V16.8333C7.5 16.5239 7.62292 16.2272 7.84171 16.0084C8.0605 15.7896 8.35725 15.6667 8.66667 15.6667ZM13.3333 15.6667C13.6191 15.6667 13.8949 15.7716 14.1084 15.9615C14.322 16.1514 14.4584 16.413 14.4918 16.6968L14.5 16.8333V18.2007C14.5 18.4571 14.5844 18.7064 14.7403 18.91L14.8418 19.0255L15.3248 19.5085C15.5341 19.7185 15.6556 20.0002 15.6646 20.2964C15.6736 20.5927 15.5696 20.8813 15.3735 21.1037C15.1775 21.326 14.9042 21.4654 14.6091 21.4935C14.314 21.5216 14.0193 21.4363 13.7848 21.255L13.6752 21.1582L13.1922 20.6752C12.5924 20.0753 12.2309 19.2781 12.1748 18.4317L12.1667 18.2007V16.8333C12.1667 16.5239 12.2896 16.2272 12.5084 16.0084C12.7272 15.7896 13.0239 15.6667 13.3333 15.6667ZM4 15.6667C4.28576 15.6667 4.56156 15.7716 4.7751 15.9615C4.98864 16.1514 5.12507 16.413 5.1585 16.6968L5.16667 16.8333V17.5485C5.16649 18.0063 5.03167 18.4538 4.779 18.8355C4.52634 19.2172 4.16698 19.5162 3.74567 19.6952L3.57067 19.7617L2.03533 20.2738C1.75324 20.3668 1.44631 20.3487 1.17712 20.2231C0.907937 20.0976 0.696765 19.8741 0.586661 19.5983C0.476556 19.3224 0.475811 19.0149 0.584576 18.7386C0.693341 18.4622 0.903426 18.2377 1.172 18.1108L1.298 18.0595L2.83333 17.5485V16.8333C2.83333 16.5239 2.95625 16.2272 3.17504 16.0084C3.39383 15.7896 3.69058 15.6667 4 15.6667ZM18 15.6667C18.2858 15.6667 18.5616 15.7716 18.7751 15.9615C18.9886 16.1514 19.1251 16.413 19.1585 16.6968L19.1667 16.8333V17.5485L20.702 18.0595C20.9851 18.1531 21.2216 18.3515 21.363 18.614C21.5044 18.8765 21.54 19.1832 21.4623 19.471C21.3847 19.7589 21.1998 20.0062 20.9455 20.162C20.6913 20.3178 20.3871 20.3703 20.0953 20.3088L19.9647 20.2738L18.4293 19.7605C17.995 19.616 17.6128 19.3469 17.3303 18.9868C17.0477 18.6267 16.8773 18.1914 16.8403 17.7352L16.8333 17.5485V16.8333C16.8333 16.5239 16.9562 16.2272 17.175 16.0084C17.3938 15.7896 17.6906 15.6667 18 15.6667ZM18 0.5C18.8927 0.49995 19.7518 0.841046 20.4013 1.4535C21.0508 2.06595 21.4418 2.90346 21.4942 3.79467L21.5 4V11C21.5 11.8927 21.159 12.7518 20.5465 13.4013C19.934 14.0508 19.0965 14.4418 18.2053 14.4942L18 14.5H4C3.10725 14.5001 2.24823 14.159 1.5987 13.5465C0.949159 12.9341 0.558208 12.0965 0.505833 11.2053L0.5 11V4C0.49995 3.10725 0.841046 2.24823 1.4535 1.5987C2.06595 0.949159 2.90346 0.558208 3.79467 0.505833L4 0.5H18ZM18 9.83333H4C3.69058 9.83333 3.39383 9.95625 3.17504 10.175C2.95625 10.3938 2.83333 10.6906 2.83333 11V12.1667H19.1667V11C19.1667 10.6906 19.0438 10.3938 18.825 10.175C18.6062 9.95625 18.3094 9.83333 18 9.83333ZM16.8333 4C16.5239 4 16.2272 4.12292 16.0084 4.34171C15.7896 4.5605 15.6667 4.85725 15.6667 5.16667C15.6667 5.47609 15.7896 5.77283 16.0084 5.99162C16.2272 6.21042 16.5239 6.33333 16.8333 6.33333C17.1428 6.33333 17.4395 6.21042 17.6583 5.99162C17.8771 5.77283 18 5.47609 18 5.16667C18 4.85725 17.8771 4.5605 17.6583 4.34171C17.4395 4.12292 17.1428 4 16.8333 4Z" fill="black"/>
</svg>
