<svg width="28" height="28" viewBox="0 0 28 28" fill="none" xmlns="http://www.w3.org/2000/svg">
<path d="M15.6202 2.32227C13.4545 2.32227 11.628 3.88157 11.628 5.87695C11.628 6.88484 12.0944 7.78117 12.8347 8.42173L13.2981 7.51009C12.8674 7.06154 12.6123 6.48923 12.6123 5.87695C12.6123 4.48953 13.9199 3.30664 15.6201 3.30664C17.3204 3.30664 18.628 4.48953 18.628 5.87695C18.628 6.82868 18.0126 7.68416 17.0772 8.12756L16.6681 9.30641C16.7714 9.28139 16.8738 9.25257 16.975 9.22L17.4759 10.0957C16.9112 10.4929 16.3646 10.9853 15.7787 11.5981L20.2275 21.4086C22.9764 21.5353 25.6287 20.0778 26.9953 17.6893L21.0984 8.67477C19.9955 8.89499 19.1083 9.16991 18.3161 9.58247L17.8737 8.80897C18.9159 8.17377 19.6124 7.10873 19.6124 5.87701C19.6124 3.88162 17.7859 2.32232 15.6202 2.32232V2.32227ZM8.9119 2.64749C8.76644 2.64913 8.61364 2.6732 8.46609 2.72121C8.12867 2.8308 7.8432 3.05666 7.71906 3.30035L7.70331 3.33152L4.15387 8.37902C4.03712 8.62248 4.02361 8.97768 4.12888 9.30706C4.23662 9.64377 4.45947 9.9253 4.6868 10.0411L12.5444 14.042C12.7671 14.1555 13.1236 14.1735 13.4549 14.0654C13.78 13.9593 14.0562 13.7435 14.1878 13.4916L15.5747 9.43049L15.5829 9.43071L15.9289 8.43376C15.9242 8.4342 15.9193 8.4343 15.9147 8.43474L16.1829 7.64916L16.1988 7.61809C16.3229 7.37441 16.3377 7.00997 16.2289 6.67298C16.12 6.336 15.8953 6.05201 15.6583 5.93131L13.904 5.0381C13.5462 5.48534 13.4364 6.12463 13.8851 6.7263L14.0005 6.91946L14.5631 7.21477L14.1116 8.10148L14.1036 8.09765L13.6597 8.97101L13.667 8.97456L13.3223 9.65137L7.76664 6.8225L8.78415 4.82433L9.00739 4.38573L10.6947 5.24498C10.7798 4.7085 10.9639 4.19236 11.2599 3.69164L9.4118 2.75074C9.27432 2.68074 9.09894 2.64547 8.9119 2.64749ZM20.8298 9.83233L22.1468 12.2287L18.2168 14.3884L17.1368 12.4234L16.8998 11.9921L20.8298 9.83233ZM20.4412 11.1691L18.2367 12.3807L18.6054 13.0517L20.8099 11.8401L20.4412 11.1691ZM6.26164 11.9476L5.12031 14.1895L8.92153 16.125L10.063 13.8832L6.26164 11.9476ZM22.5155 12.8998L23.8324 15.296L19.9024 17.4556L18.8226 15.4907L18.5856 15.0594L22.5156 12.8996L22.5155 12.8998ZM22.1269 14.2364L19.9222 15.448L20.2911 16.119L22.4957 14.9074L22.1269 14.2364ZM5.45336 15.4636H5.45325L1.00464 24.2003L1.33949 25.23L5.56487 16.9319L6.44194 17.3786L2.21668 25.6766L3.44031 25.2788L4.1495 25.0481L3.76745 23.8693L4.94301 23.4881L4.56042 22.3119L5.7373 21.9292L5.44362 21.0266L7.69511 16.6051L5.45336 15.4636Z" fill="black"/>
</svg>
