<svg width="29" height="28" viewBox="0 0 29 28" fill="none" xmlns="http://www.w3.org/2000/svg">
<path d="M5.33382 25.666C4.69215 25.666 4.14304 25.4377 3.68649 24.9812C3.22993 24.5246 3.00127 23.9751 3.00049 23.3327V7.75768L19.2172 1.16602L19.9755 3.09102L10.3505 6.99935H24.0005C24.6422 6.99935 25.1917 7.22802 25.649 7.68535C26.1063 8.14268 26.3346 8.69179 26.3338 9.33268V23.3327C26.3338 23.9743 26.1055 24.5238 25.649 24.9812C25.1924 25.4385 24.6429 25.6668 24.0005 25.666H5.33382ZM10.0005 22.166C10.8172 22.166 11.5074 21.8841 12.0713 21.3202C12.6352 20.7563 12.9172 20.066 12.9172 19.2493C12.9172 18.4327 12.6352 17.7424 12.0713 17.1785C11.5074 16.6146 10.8172 16.3327 10.0005 16.3327C9.18382 16.3327 8.49354 16.6146 7.92965 17.1785C7.36577 17.7424 7.08382 18.4327 7.08382 19.2493C7.08382 20.066 7.36577 20.7563 7.92965 21.3202C8.49354 21.8841 9.18382 22.166 10.0005 22.166ZM5.33382 12.8327H19.3338V10.4993H21.6672V12.8327H24.0005V9.33268H5.33382V12.8327Z" fill="black"/>
</svg>
