<svg width="29" height="28" viewBox="0 0 29 28" fill="none" xmlns="http://www.w3.org/2000/svg">
  <path fill-rule="evenodd" clip-rule="evenodd" d="M14.3337 2.33398C20.7772 2.33398 26.0003 7.55715 26.0003 14.0007C26.0003 20.4442 20.7772 25.6673 14.3337 25.6673C7.89016 25.6673 2.66699 20.4442 2.66699 14.0007C2.66699 7.55715 7.89016 2.33398 14.3337 2.33398ZM5.23949 16.1123C5.64777 17.8651 6.55349 19.4627 7.84782 20.7131C9.14215 21.9636 10.77 22.8137 12.5358 23.1613C12.3107 20.0988 11.3038 18.2613 10.0322 17.2452C8.81416 16.271 7.16216 15.8942 5.23949 16.1112V16.1123ZM18.6352 17.244C17.3635 18.2625 16.3567 20.0988 16.1315 23.1613C17.8975 22.8136 19.5254 21.9633 20.8198 20.7127C22.1141 19.462 23.0197 17.8641 23.4278 16.1112C21.5052 15.8942 19.8532 16.271 18.6352 17.2452V17.244ZM14.3337 4.66732C12.159 4.66693 10.0525 5.42593 8.37784 6.81323C6.70319 8.20054 5.56554 10.1291 5.16133 12.2658L5.11116 12.5552L7.68949 12.0395C8.36849 11.9042 9.01366 11.546 9.73466 11.0595L10.2912 10.6722C11.221 10.0118 12.5988 9.33398 14.3337 9.33398C15.953 9.33398 17.2608 9.92432 18.1837 10.5403L18.9327 11.0595C19.5627 11.4853 20.1367 11.812 20.7247 11.9788L20.9778 12.0395L23.5562 12.5552C23.2115 10.3569 22.0929 8.35402 20.4019 6.90774C18.7109 5.46145 16.5588 4.66689 14.3337 4.66732Z" fill="black"/>
</svg>
